<?xml version="1.0" encoding="utf-8"?>
<!-- Generator: Adobe Illustrator 24.1.1, SVG Export Plug-In . SVG Version: 6.00 Build 0)  -->
<svg version="1.1" id="Layer_1" xmlns="http://www.w3.org/2000/svg" xmlns:xlink="http://www.w3.org/1999/xlink" x="0px" y="0px"
	 viewBox="0 0 100 100" style="enable-background:new 0 0 100 100;" xml:space="preserve">
<style type="text/css">
	.st0{fill:#00A299;}
	.st1{fill:#E50013;}
</style>
<g>
	<g>
		<g>
			<g>
				<g>
					<path class="st0" d="M1.49,54.86l6.18-11.61h3.87l2.14,11.61H9.89L9.7,53.33H5.91l-0.69,1.53H1.49z M8.96,46.75l-1.9,4.16h2.4
						L8.96,46.75z"/>
				</g>
			</g>
			<g>
				<g>
					<path class="st0" d="M18.71,46.41l-0.21,1.26h0.03c0.16-0.26,0.36-0.48,0.59-0.67c0.23-0.19,0.48-0.34,0.74-0.47
						c0.26-0.12,0.53-0.21,0.8-0.27c0.27-0.06,0.53-0.09,0.77-0.09c0.54,0,1,0.09,1.39,0.26c0.39,0.17,0.71,0.41,0.97,0.72
						c0.25,0.31,0.44,0.66,0.56,1.07c0.12,0.41,0.19,0.84,0.19,1.31c0,0.34-0.03,0.69-0.1,1.05c-0.15,0.83-0.39,1.53-0.73,2.1
						c-0.33,0.58-0.72,1.04-1.15,1.4c-0.44,0.36-0.9,0.62-1.4,0.78c-0.5,0.16-0.99,0.24-1.46,0.24c-0.46,0-0.85-0.09-1.17-0.27
						c-0.32-0.18-0.58-0.45-0.8-0.81l-0.65,3.71h-3.35l1.95-11.32H18.71z M19.31,52.54c0.45,0,0.84-0.17,1.15-0.52
						c0.32-0.35,0.52-0.81,0.62-1.39c0.04-0.2,0.06-0.41,0.06-0.63c0-0.45-0.11-0.79-0.32-1.01c-0.22-0.22-0.51-0.33-0.87-0.33
						c-0.41,0-0.77,0.18-1.07,0.52c-0.31,0.35-0.51,0.81-0.6,1.38c-0.02,0.11-0.04,0.21-0.05,0.31c-0.01,0.1-0.02,0.2-0.02,0.3
						c0,0.42,0.09,0.75,0.28,1C18.69,52.41,18.96,52.54,19.31,52.54z"/>
				</g>
			</g>
			<g>
				<g>
					<path class="st0" d="M29.15,46.41l-0.21,1.26h0.03c0.16-0.26,0.36-0.48,0.59-0.67c0.23-0.19,0.48-0.34,0.74-0.47
						c0.26-0.12,0.53-0.21,0.8-0.27c0.27-0.06,0.53-0.09,0.77-0.09c0.54,0,1,0.09,1.39,0.26c0.39,0.17,0.71,0.41,0.97,0.72
						c0.25,0.31,0.44,0.66,0.56,1.07c0.12,0.41,0.18,0.84,0.18,1.31c0,0.34-0.03,0.69-0.1,1.05c-0.15,0.83-0.39,1.53-0.73,2.1
						c-0.33,0.58-0.72,1.04-1.15,1.4c-0.44,0.36-0.9,0.62-1.4,0.78c-0.5,0.16-0.99,0.24-1.46,0.24c-0.46,0-0.85-0.09-1.17-0.27
						c-0.32-0.18-0.58-0.45-0.8-0.81l-0.64,3.71h-3.35l1.95-11.32H29.15z M29.74,52.54c0.45,0,0.84-0.17,1.15-0.52
						c0.32-0.35,0.52-0.81,0.62-1.39c0.04-0.2,0.06-0.41,0.06-0.63c0-0.45-0.11-0.79-0.32-1.01c-0.22-0.22-0.51-0.33-0.87-0.33
						c-0.41,0-0.77,0.18-1.07,0.52c-0.31,0.35-0.51,0.81-0.6,1.38c-0.02,0.11-0.04,0.21-0.05,0.31c-0.01,0.1-0.02,0.2-0.02,0.3
						c0,0.42,0.09,0.75,0.28,1C29.12,52.41,29.39,52.54,29.74,52.54z"/>
				</g>
			</g>
			<g>
				<g>
					<path class="st0" d="M35.4,54.86l2.02-11.61h3.35l-2.02,11.61H35.4z"/>
				</g>
			</g>
			<g>
				<g>
					<path class="st0" d="M43.9,51.39c-0.01,0.05-0.02,0.11-0.02,0.16c-0.01,0.05-0.01,0.11-0.01,0.16c0,0.41,0.13,0.73,0.4,0.98
						c0.27,0.24,0.6,0.36,1,0.36c0.27,0,0.53-0.06,0.77-0.19c0.25-0.12,0.45-0.31,0.61-0.56h3.21c-0.24,0.53-0.55,0.97-0.93,1.32
						c-0.38,0.35-0.8,0.64-1.27,0.86c-0.46,0.22-0.95,0.38-1.46,0.47c-0.51,0.09-1.01,0.14-1.51,0.14c-0.6,0-1.16-0.08-1.66-0.23
						c-0.51-0.15-0.94-0.38-1.31-0.68c-0.37-0.3-0.65-0.67-0.85-1.1c-0.2-0.44-0.31-0.94-0.31-1.51c0-0.14,0.01-0.28,0.02-0.43
						c0.02-0.15,0.03-0.29,0.06-0.44c0.12-0.69,0.35-1.31,0.69-1.88c0.34-0.56,0.77-1.04,1.27-1.43c0.5-0.39,1.06-0.7,1.68-0.91
						c0.62-0.21,1.27-0.32,1.94-0.32c0.68,0,1.28,0.1,1.8,0.29c0.52,0.19,0.96,0.46,1.31,0.81c0.35,0.34,0.62,0.76,0.81,1.26
						c0.18,0.49,0.27,1.04,0.27,1.63c0,0.37-0.04,0.78-0.13,1.24H43.9z M47.24,49.68c0.01-0.05,0.02-0.13,0.02-0.24
						c0-0.34-0.12-0.63-0.36-0.87c-0.24-0.24-0.53-0.35-0.89-0.35c-0.51,0-0.91,0.13-1.22,0.39c-0.31,0.26-0.51,0.62-0.6,1.07H47.24
						z"/>
				</g>
			</g>
			<g>
				<g>
					<path class="st0" d="M59.6,49.59l0.32-2.64l0.65-3.69h3.64L62.2,54.86h-3.56l-3.05-6.32l-0.32,2.64l-0.63,3.68h-3.64
						l2.02-11.61h3.56L59.6,49.59z"/>
				</g>
			</g>
			<g>
				<g>
					<path class="st0" d="M64.89,47.76c0.49-0.09,0.85-0.25,1.06-0.5c0.26-0.27,0.42-0.62,0.5-1.06h-1.29l0.52-2.95h2.95l-0.45,2.55
						c-0.06,0.48-0.21,0.93-0.44,1.33c-0.23,0.4-0.5,0.75-0.82,1.04c-0.32,0.29-0.68,0.51-1.06,0.67c-0.39,0.16-0.77,0.23-1.16,0.23
						h-0.03L64.89,47.76z"/>
				</g>
			</g>
			<g>
				<g>
					<path class="st0" d="M68.2,54.86l2.02-11.61h5.1c0.82,0,1.55,0.08,2.19,0.25c0.64,0.17,1.19,0.43,1.64,0.77
						c0.45,0.35,0.8,0.79,1.03,1.31c0.24,0.53,0.36,1.15,0.36,1.87c0,0.22-0.01,0.43-0.03,0.65c-0.02,0.22-0.05,0.45-0.1,0.7
						c-0.19,1.1-0.5,2.03-0.93,2.79c-0.42,0.76-0.95,1.39-1.56,1.87c-0.62,0.48-1.32,0.84-2.12,1.06c-0.8,0.22-1.66,0.33-2.6,0.33
						H68.2z M72.47,52.15h0.81c0.88,0,1.6-0.25,2.16-0.74c0.56-0.49,0.93-1.29,1.11-2.39c0.04-0.23,0.07-0.44,0.09-0.63
						s0.02-0.38,0.02-0.55c0-0.72-0.2-1.21-0.59-1.48c-0.39-0.27-1-0.4-1.81-0.4h-0.73L72.47,52.15z"/>
				</g>
			</g>
			<g>
				<g>
					<path class="st0" d="M80.37,54.86l1.45-8.45h3.35l-1.45,8.45H80.37z"/>
				</g>
			</g>
			<g>
				<g>
					<path class="st0" d="M89.59,46.41l-0.21,1.26h0.03c0.16-0.26,0.36-0.48,0.59-0.67c0.23-0.19,0.48-0.34,0.74-0.47
						c0.26-0.12,0.53-0.21,0.8-0.27c0.27-0.06,0.53-0.09,0.77-0.09c0.54,0,1,0.09,1.39,0.26c0.39,0.17,0.71,0.41,0.97,0.72
						c0.25,0.31,0.44,0.66,0.56,1.07c0.12,0.41,0.19,0.84,0.19,1.31c0,0.34-0.03,0.69-0.1,1.05c-0.15,0.83-0.39,1.53-0.73,2.1
						c-0.33,0.58-0.72,1.04-1.15,1.4c-0.44,0.36-0.9,0.62-1.4,0.78c-0.5,0.16-0.99,0.24-1.46,0.24c-0.46,0-0.85-0.09-1.17-0.27
						c-0.32-0.18-0.58-0.45-0.8-0.81l-0.65,3.71h-3.35l1.95-11.32H89.59z M90.19,52.54c0.45,0,0.84-0.17,1.15-0.52
						c0.32-0.35,0.52-0.81,0.62-1.39c0.04-0.2,0.06-0.41,0.06-0.63c0-0.45-0.11-0.79-0.32-1.01c-0.22-0.22-0.51-0.33-0.87-0.33
						c-0.41,0-0.77,0.18-1.07,0.52c-0.31,0.35-0.51,0.81-0.6,1.38c-0.02,0.11-0.04,0.21-0.05,0.31c-0.01,0.1-0.02,0.2-0.02,0.3
						c0,0.42,0.09,0.75,0.28,1C89.57,52.41,89.84,52.54,90.19,52.54z"/>
				</g>
			</g>
		</g>
		<g>
			<g>
				<g>
					<path class="st0" d="M96.9,43.23c-1.16,0-2.1,0.94-2.1,2.1c0,1.16,0.94,2.1,2.1,2.1c1.16,0,2.1-0.94,2.1-2.1
						C99,44.17,98.06,43.23,96.9,43.23z M96.9,46.88c-0.86,0-1.55-0.7-1.55-1.55c0-0.86,0.7-1.55,1.55-1.55
						c0.86,0,1.55,0.7,1.55,1.55C98.45,46.19,97.76,46.88,96.9,46.88z"/>
				</g>
			</g>
			<g>
				<g>
					<g>
						<path class="st0" d="M97.26,45.05c0-0.1-0.04-0.18-0.1-0.24c-0.06-0.06-0.14-0.09-0.24-0.09c-0.09,0-0.16,0.02-0.21,0.06
							c-0.05,0.04-0.09,0.09-0.12,0.15c-0.03,0.06-0.05,0.13-0.06,0.21c-0.01,0.08-0.01,0.15-0.01,0.22c0,0.18,0.03,0.32,0.1,0.42
							c0.07,0.1,0.17,0.16,0.3,0.16c0.12,0,0.21-0.03,0.26-0.1c0.05-0.07,0.09-0.15,0.1-0.24h0.93c-0.02,0.18-0.07,0.33-0.14,0.45
							c-0.08,0.12-0.17,0.22-0.29,0.3c-0.12,0.08-0.25,0.13-0.39,0.17c-0.15,0.03-0.3,0.05-0.46,0.05c-0.19,0-0.36-0.03-0.52-0.08
							c-0.16-0.05-0.3-0.13-0.42-0.23c-0.12-0.1-0.21-0.23-0.28-0.38c-0.07-0.15-0.1-0.32-0.1-0.52c0-0.2,0.03-0.38,0.1-0.53
							c0.07-0.16,0.16-0.29,0.28-0.39c0.12-0.11,0.26-0.19,0.42-0.24c0.16-0.06,0.34-0.08,0.53-0.08c0.15,0,0.3,0.02,0.45,0.05
							c0.15,0.04,0.28,0.09,0.39,0.17c0.12,0.08,0.21,0.17,0.29,0.3c0.08,0.12,0.12,0.27,0.14,0.44H97.26z"/>
					</g>
				</g>
			</g>
		</g>
	</g>
	<g>
		<g>
			<path class="st1" d="M84,43.6c-0.25-1.06-1.77-0.63-1.98,0.51c-0.2,1.14,1.34,1.15,1.49,2.18c0.52-1.03,2.07-1.04,2.28-2.18
				C85.99,42.97,84.62,42.54,84,43.6z"/>
		</g>
	</g>
</g>
</svg>
