<?xml version="1.0" encoding="utf-8"?>
<!-- Generator: Adobe Illustrator 24.1.1, SVG Export Plug-In . SVG Version: 6.00 Build 0)  -->
<svg version="1.1" id="Layer_1" xmlns="http://www.w3.org/2000/svg" xmlns:xlink="http://www.w3.org/1999/xlink" x="0px" y="0px"
	 viewBox="0 0 100 100" style="enable-background:new 0 0 100 100;" xml:space="preserve">
<style type="text/css">
	.st0{fill:#FFFFFF;}
</style>
<path d="M25.06,59.9c-4.32,0-7.35-3.88-6.27-8.05c0.59-2.3,1.2-4.59,1.88-6.86c0.88-2.98,3.38-4.67,6.68-4.6
	c2.63,0.05,5.16,2.06,5.79,4.81c0.23,1,0.21,2.14,0,3.16c-0.49,2.27-1.15,4.49-1.78,6.73C30.54,58.01,28.06,59.9,25.06,59.9z
	 M29.04,47.05c0-1.36-0.78-2.26-1.83-2.41c-1.13-0.16-2.11,0.47-2.44,1.62c-0.61,2.18-1.2,4.37-1.78,6.56
	c-0.34,1.29,0.28,2.42,1.49,2.77c1.13,0.32,2.31-0.35,2.66-1.58c0.5-1.73,0.95-3.47,1.42-5.2C28.75,48.14,28.93,47.46,29.04,47.05z"
	/>
<path d="M72.3,59.9c-4.3,0-7.33-3.88-6.27-8.07c0.58-2.27,1.21-4.53,1.86-6.79c0.89-3.06,3.64-4.88,6.97-4.64
	c2.8,0.2,5.32,2.56,5.71,5.5c0.11,0.83,0.02,1.74-0.18,2.56c-0.55,2.25-1.18,4.49-1.82,6.72C77.75,58.06,75.29,59.9,72.3,59.9z
	 M74.18,44.63c-1.02-0.01-1.86,0.58-2.15,1.62c-0.62,2.23-1.22,4.47-1.8,6.72c-0.31,1.2,0.34,2.28,1.49,2.62
	c1.04,0.31,2.29-0.26,2.6-1.33c0.7-2.37,1.36-4.76,1.93-7.17C76.56,45.79,75.51,44.65,74.18,44.63z"/>
<path d="M41.32,59.87c0.88-3.21,1.73-6.35,2.59-9.49c0.26-0.96,0.53-1.91,0.78-2.87c0.35-1.34-0.29-2.51-1.53-2.83
	c-1.17-0.31-2.31,0.4-2.66,1.7c-1.23,4.47-2.45,8.95-3.68,13.48c-1.45,0-2.91,0-4.46,0c0.47-1.76,0.94-3.51,1.41-5.25
	c0.84-3.1,1.68-6.19,2.52-9.29c0.81-2.94,3.28-4.86,6.14-4.94c3.16-0.1,5.84,2.07,6.44,4.71c0.21,0.92,0.32,1.96,0.1,2.85
	c-0.98,3.99-2.09,7.96-3.16,11.94C44.32,59.87,42.88,59.87,41.32,59.87z"/>
<path d="M79.61,59.87c0.46-1.68,0.9-3.31,1.34-4.94c0.89-3.27,1.77-6.54,2.68-9.81c0.87-3.1,3.52-4.9,6.9-4.73
	c2.77,0.14,5.33,2.44,5.77,5.34c0.14,0.93,0.04,1.95-0.19,2.87c-0.91,3.56-1.92,7.1-2.87,10.65c-0.13,0.49-0.31,0.68-0.83,0.66
	c-1.23-0.04-2.46-0.01-3.81-0.01c0.37-1.4,0.72-2.72,1.08-4.04c0.75-2.74,1.5-5.48,2.25-8.22c0.39-1.45-0.22-2.63-1.52-2.96
	c-1.22-0.31-2.31,0.44-2.7,1.86c-1.15,4.2-2.29,8.4-3.44,12.6c-0.07,0.25-0.15,0.49-0.22,0.73C82.56,59.87,81.13,59.87,79.61,59.87z
	"/>
<path d="M11.71,52.95c0.5-1.88,0.98-3.66,1.46-5.45c0.36-1.34-0.26-2.5-1.5-2.83c-1.17-0.31-2.3,0.37-2.67,1.69
	c-1.15,4.17-2.3,8.35-3.41,12.53c-0.2,0.74-0.44,1.09-1.29,1.02c-1.12-0.09-2.25-0.02-3.48-0.02c0.44-1.62,0.87-3.17,1.29-4.72
	c0.9-3.32,1.8-6.65,2.69-9.97c0.81-3.02,3.61-4.98,6.69-4.84c2.72,0.12,5.28,2.07,5.91,4.89c0.22,0.98,0.15,2.08-0.03,3.09
	c-0.24,1.38-0.69,2.73-1.09,4.08c-0.06,0.2-0.28,0.5-0.44,0.51C14.5,52.97,13.15,52.95,11.71,52.95z"/>
<path d="M52.56,59.87c-1.52,0-2.95,0-4.47,0c0.57-2.12,1.14-4.21,1.7-6.29c0.78-2.87,1.53-5.74,2.36-8.6
	c0.9-3.13,4.05-5.09,7.23-4.57c3.34,0.55,5.77,3.44,5.46,6.77c-0.15,1.59-0.78,3.13-1.1,4.71c-0.17,0.85-0.54,1.15-1.41,1.08
	c-1.06-0.08-2.14-0.02-3.35-0.02c0.27-1.06,0.52-2.03,0.78-3c0.22-0.81,0.46-1.6,0.67-2.41c0.36-1.37-0.24-2.5-1.48-2.86
	c-1.2-0.34-2.35,0.37-2.72,1.71C55.01,50.88,53.79,55.36,52.56,59.87z"/>
<path d="M363.33-12.68c-7.66-0.06-13.93-6.43-13.86-14.09c0.06-7.65,6.45-13.93,14.1-13.87c7.65,0.06,13.93,6.45,13.86,14.1
	C377.36-18.88,370.99-12.62,363.33-12.68z M370.46-18.68c4.88-4.7,5.29-10.71,1.04-15.39c-4.01-4.42-10.68-4.77-15.25-0.81
	c-4.52,3.93-5.05,10.66-1.2,15.24c4.08,4.85,9.95,5.22,15.39,0.98L370.46-18.68z"/>
<path class="st0" d="M370.44-18.66c-5.44,4.24-11.31,3.87-15.39-0.98c-3.86-4.58-3.33-11.31,1.2-15.24
	c4.57-3.97,11.24-3.61,15.25,0.81c4.25,4.68,3.84,10.69-1.04,15.4c-0.12-3.04-0.75-6.16-0.26-9.1c0.85-5.04-0.21-6.84-5.33-6.98
	c-2.43-0.07-4.86-0.01-7.67-0.01c0,3.97-0.18,7.29,0.07,10.57c0.15,1.88,1,3.71,1.53,5.56c0.7-1.75,1.39-3.5,2.11-5.24
	c0.12-0.28,0.4-0.5,0.69-0.85c2.67-0.53,5.04-0.58,4.85,3.3C366.3-18.36,368.28-18.38,370.44-18.66z"/>
<path d="M370.44-18.66c-2.16,0.28-4.14,0.31-3.99-2.76c0.19-3.88-2.17-3.83-4.85-3.3c-0.29,0.35-0.57,0.56-0.69,0.85
	c-0.73,1.74-1.41,3.49-2.11,5.24c-0.53-1.85-1.39-3.68-1.53-5.56c-0.25-3.28-0.07-6.6-0.07-10.57c2.81,0,5.24-0.06,7.67,0.01
	c5.12,0.14,6.18,1.94,5.33,6.98c-0.49,2.94,0.13,6.06,0.26,9.1C370.46-18.68,370.44-18.66,370.44-18.66z M367.2-29.54
	c-0.06-0.44-0.11-0.88-0.17-1.31c-1.41-0.38-2.85-1.12-4.21-0.99c-0.76,0.07-1.38,1.59-2.06,2.46c1.17,0.53,2.34,1.45,3.52,1.47
	C365.24-27.9,366.23-28.96,367.2-29.54z"/>
<path class="st0" d="M367.2-29.54c-0.97,0.58-1.96,1.64-2.92,1.62c-1.18-0.02-2.34-0.94-3.52-1.47c0.68-0.87,1.3-2.39,2.06-2.46
	c1.36-0.13,2.8,0.61,4.21,0.99C367.09-30.42,367.14-29.98,367.2-29.54z"/>
<g>
	<path d="M98,41.5L98,41.5c0.06-0.02,0.28-0.11,0.28-0.43c0-0.29-0.19-0.46-0.56-0.46h-0.81v1.7h0.3v-0.7h0.44
		c0.27,0,0.34,0.14,0.34,0.45c0,0.08,0,0.18,0.05,0.25h0.32c-0.06-0.07-0.09-0.25-0.09-0.45C98.25,41.59,98.1,41.51,98,41.5z
		 M97.69,41.38h-0.49v-0.53h0.48c0.15,0,0.29,0.04,0.29,0.26C97.98,41.29,97.88,41.38,97.69,41.38z"/>
	<path d="M97.57,39.88c-0.87,0-1.58,0.71-1.58,1.58c0,0.87,0.71,1.58,1.58,1.58c0.87,0,1.58-0.71,1.58-1.58
		C99.14,40.58,98.44,39.88,97.57,39.88z M97.57,42.75c-0.72,0-1.3-0.58-1.3-1.3c0-0.72,0.58-1.3,1.3-1.3c0.72,0,1.3,0.58,1.3,1.3
		C98.86,42.17,98.28,42.75,97.57,42.75z"/>
</g>
</svg>
