<?xml version="1.0" encoding="utf-8"?>
<!-- Generator: Adobe Illustrator 24.1.1, SVG Export Plug-In . SVG Version: 6.00 Build 0)  -->
<svg version="1.1" id="Layer_1" xmlns="http://www.w3.org/2000/svg" xmlns:xlink="http://www.w3.org/1999/xlink" x="0px" y="0px"
	 viewBox="0 0 100 100" style="enable-background:new 0 0 100 100;" xml:space="preserve">
<style type="text/css">
	.st0{fill:#060000;}
</style>
<path class="st0" d="M44.11,53.02l-8.1-12.91h-6.1v23.02h6.09V50.28l8.1,12.85h5.98V40.1h-5.97V53.02z M21.04,48.88
	c-2.2-0.5-5.82-0.61-5.67-2.2c0.24-2.54,9.33-1.03,12.33,0.62l0.06-5.95c-5.2-2.26-19.38-3.15-19.38,5.82c0,2.01,1.14,3.64,2.31,4.5
	c2.47,1.85,7.25,2.34,9.1,2.72c1.32,0.28,2.44,0.77,2.34,1.72c-0.27,2.67-9.48,1.24-13.29-0.89v6.13c7.35,3.33,19.79,2.36,19.7-5.45
	C28.53,52.52,26.45,50.11,21.04,48.88z M90.56,43.44c-2.29-2.23-5.04-3.33-8.26-3.33h-8.49v23.02h8.49c3.22,0,5.97-1.11,8.26-3.34
	S94,54.84,94,51.62C94,48.4,92.86,45.67,90.56,43.44z M85.79,56.52c-1.18,1.01-2.72,1.53-4.64,1.53h-1.34V45.17h1.41
	c1.97,0,3.55,0.57,4.76,1.71c1.2,1.13,1.8,2.71,1.8,4.72C87.77,53.74,87.1,55.38,85.79,56.52z M72.11,47.39
	c0-5.95-5.37-7.29-9.2-7.29H52.23v23.02h5.98v-7.9h2.7l5.3,7.9h7.48l-6.3-8.49C69.81,53.79,72.11,51.3,72.11,47.39z M60.77,50.42
	h-2.56v-5.74h2.56c2.77,0,4.8,0.3,4.8,2.87C65.57,50.11,63.54,50.42,60.77,50.42z"/>
</svg>
