<?xml version="1.0" encoding="utf-8"?>
<!-- Generator: Adobe Illustrator 24.1.1, SVG Export Plug-In . SVG Version: 6.00 Build 0)  -->
<svg version="1.1" id="Layer_1" xmlns="http://www.w3.org/2000/svg" xmlns:xlink="http://www.w3.org/1999/xlink" x="0px" y="0px"
	 viewBox="0 0 100 100" style="enable-background:new 0 0 100 100;" xml:space="preserve">
<style type="text/css">
	.st0{fill:#C30F23;}
</style>
<path class="st0" d="M21.89,72.95h1.18v-4.25h-1.18V72.95z M31.37,70.21h-1.5l0-1.52H28.7v4.25h1.18v-1.63h1.49v1.63h1.18v-4.25
	h-1.18V70.21z M19.03,71.08l-0.27-0.65l0.67-1.74h-1.11L18.2,69l-0.06-0.16l-0.06-0.15h-1.14l0.71,1.82l-0.22,0.59l-0.83-2.41h-1.25
	l1.62,4.33h0.79l0.42-1.18l0.41,1.18h0.83l1.54-4.33h-1.17L19.03,71.08z M37.81,69.91l-0.63-1.22h-1.31l1.31,2.45l0,1.8h1.18v-1.8
	l1.43-2.46h-1.32L37.81,69.91z M42.58,68.62c-1.3,0-2.25,0.9-2.25,2.18c0,0,0,0.01,0,0.04c0.01,1.26,0.96,2.17,2.25,2.17
	c1.29,0,2.24-0.93,2.24-2.2C44.82,69.53,43.88,68.62,42.58,68.62z M42.58,71.93c-0.59-0.01-1.02-0.45-1.02-1.11
	c0.01-0.66,0.43-1.11,1.02-1.12c0.58,0,1.01,0.45,1.02,1.12C43.59,71.48,43.16,71.93,42.58,71.93z M24.15,69.76h1.14v3.18h1.18
	v-3.18h1.14v-1.07h-3.46V69.76z M53.85,70.88l-0.18-0.14L53.85,70.88c0.18-0.23,0.26-0.53,0.26-0.85c0-0.4-0.12-0.75-0.39-0.99
	c-0.27-0.27-0.62-0.35-1.18-0.34h-1.49v4.25h1.18v-1.52h0l0.87,1.52h1.32l-1-1.73C53.6,71.14,53.74,71.03,53.85,70.88z M52.47,70.35
	h-0.24v-0.59h0.24c0.45,0.05,0.4,0.03,0.43,0.28C52.87,70.32,52.89,70.31,52.47,70.35z M78.14,71.18l-0.93-2.49h-1.25v4.25h1.11
	v-1.53l0.55,1.53h0.97l0.63-1.63v1.63h1.15v-4.25h-1.25L78.14,71.18z M83.21,70.11l-0.11,0.2L83.21,70.11
	c-0.27-0.16-0.24-0.16-0.24-0.2c0-0.02,0.03-0.11,0.33-0.12c0.2,0,0.51,0.08,0.89,0.25l0.21,0.09l0.47-1.06l-0.2-0.09
	c-0.26-0.12-0.38-0.17-0.57-0.23c-0.26-0.08-0.51-0.11-0.78-0.11c-0.46,0-0.78,0.08-1.08,0.29c-0.14,0.1-0.26,0.22-0.35,0.35
	c-0.12,0.18-0.18,0.41-0.19,0.65c-0.01,0.52,0.31,0.87,0.99,1.25l0.59,0.33c0.23,0.15,0.21,0.15,0.22,0.21
	c0,0.05-0.04,0.14-0.32,0.15c-0.11,0-0.31-0.04-0.47-0.09c-0.13-0.05-0.23-0.1-0.51-0.25l-0.21-0.12l-0.5,1.1l0.21,0.1
	c0.11,0.05,0.19,0.09,0.25,0.11c0.39,0.18,0.56,0.24,0.85,0.28c0.12,0.02,0.24,0.03,0.37,0.03c0.46,0,0.84-0.11,1.13-0.33
	c0.29-0.23,0.44-0.58,0.44-0.97c0-0.32-0.12-0.63-0.33-0.84C84.18,70.66,83.79,70.42,83.21,70.11z M48.41,71.27
	c-0.03,0.46-0.15,0.59-0.62,0.62c-0.53-0.04-0.64-0.15-0.67-0.62v-2.58h-1.17v2.54c-0.01,0.71,0.16,1.17,0.61,1.47
	c0.33,0.22,0.7,0.32,1.19,0.32h0.02c0.5,0,0.88-0.1,1.2-0.31c0.46-0.31,0.64-0.76,0.62-1.47v-2.54h-1.18V71.27z M72.57,68.69
	l-0.06,0.15l-1.49,4.1h1.25l0.31-0.94h0.94l0.3,0.94h1.25l-1.54-4.25H72.57z M72.88,71.01l0.18-0.56l0.18,0.56H72.88z M59.41,68.69
	h-1.64v4.25h1.64c0.72,0,1.3-0.2,1.7-0.63c0.37-0.4,0.58-0.94,0.58-1.51c0-0.55-0.2-1.09-0.57-1.49
	C60.7,68.87,60.15,68.69,59.41,68.69z M59.33,71.85h-0.35v-2.07h0.35c0.39,0,0.63,0.07,0.77,0.18c0.19,0.14,0.35,0.48,0.35,0.85
	C60.43,71.52,60.11,71.83,59.33,71.85z M65.68,70.88l-0.18-0.14L65.68,70.88c0.17-0.24,0.26-0.53,0.25-0.85
	c0-0.4-0.12-0.75-0.38-0.99c-0.27-0.27-0.63-0.35-1.18-0.34h-1.5v4.25h1.18v-1.52h0l0.87,1.52h1.32l-1-1.73
	C65.43,71.14,65.56,71.03,65.68,70.88z M64.3,70.35h-0.25v-0.59h0.25c0.45,0.05,0.4,0.03,0.43,0.28
	C64.69,70.32,64.71,70.31,64.3,70.35z M68.39,71.32h1.3v-1.07h-1.3v-0.49h1.59v-1.07h-2.77v4.25h2.84v-1.07h-1.67V71.32z"/>
<g>
	<g>
		<path class="st0" d="M41.98,44.14c-2.67,1.35-4.18,0.9-4.18,0.9c-1.52-2.44-4.97-1.52-4.97-1.52c-2.48,0.7-4.31,2.13-5.42,6.78
			c0,0-1.54,5.69,2.91,6.56c2.5,0.49,4.2-0.89,4.96-1.82c0.21,0.72,0.45,1.34,1.37,1.7c0,0,2.57,0.93,4.28-1.43l0.13-0.89
			c0,0-0.49,0.51-1.12,0.51c0,0-0.75-0.04-0.38-1.36L41.98,44.14z M36.2,50.54c-0.36,1.5-0.88,3.08-1.82,3.85
			c-1.29,1.06-3.28,0.37-2.99-1.79c0.19-1.42,0.76-3.32,1.05-4.28c1.15-3.8,4.4-3.35,4.82-2.03L36.2,50.54z"/>
		<path class="st0" d="M71.18,39.31c1.27,0.45,2.79-0.29,3.38-1.66c0.59-1.37,0.04-2.85-1.23-3.3c-1.27-0.45-2.79,0.29-3.38,1.66
			C69.36,37.38,69.91,38.85,71.18,39.31z"/>
		<path class="st0" d="M86.91,43.43c-2.88,0.45-5.43,2.94-6.28,6.72c0,0-0.54,1.89-0.01,3.69c-0.42,0.98-1.37,2.46-3.28,2.78
			l2.68-10.96h1.79c0.66-1.12,1.73-1.62,1.73-1.62h-3.13l1.2-4.93c0,0,0.54-2.32,1.75-2.58c2.83-0.62,1.24,4.12,1.24,4.12l1.33,0
			c0,0,1.35-3.64-0.39-5.31c-0.64-0.62-1.37-0.95-2.45-1.01c-2.29-0.13-3.95,1.44-3.95,1.44c-1.18,1.09-1.93,2.66-2.44,4.67
			l-2.91,12.13c-0.8,0.93-1.97,1.97-3.06,1.83c-0.84-0.11-0.64-1.19-0.48-1.73l2.87-11.33c-2.79,0.09-4.28-1.27-4.28-1.27
			l-3.19,12.43c-0.8,0.94-2,2.04-3.13,1.9c-0.84-0.11-0.63-1.19-0.48-1.73l4.47-17.65c-3.22,1.53-4.78,0.76-4.78,0.76l-4.36,17
			c-0.38,1.5-1.25,3.05-3.29,3.51l2.97-12.24c-3.03,1.46-4.51,0.87-4.51,0.87l-1.61,6.63c0,0-1.34,3.52-3.65,3.07
			c-0.8-0.16-0.67-0.9-0.54-1.49L48,48.07c0.44-1.71,0.07-2.66,0.07-2.66c-0.21-0.57-0.62-1.1-1.4-1.38c0,0-2.06-0.82-3.88,1.25
			l-0.28,1.09c0,0,0.49-0.51,1.12-0.51c0,0,0.75,0.04,0.38,1.36l-1.4,5.48c-0.5,1.87-0.07,2.66-0.07,2.66s0.54,1.57,2.52,1.57
			c0.21,0,3.13,0.16,5.18-2.52l-0.76,3.12c-2.9,0.88-4.8,2.02-5.82,3.6c-1.51,2.34-0.96,5.85,2.83,5.43
			c5.14-0.57,6.55-6.02,6.55-6.02l0.71-2.93c0.73-0.12,2.65-0.75,3.63-2.26c0.05,0.14,0.14,0.35,0.21,0.48
			c0.52,0.92,1.59,1.21,2.4,1.21c0.04,0,2.86,0.28,5.43-2.66c0.03,0.53,0.14,1.03,0.38,1.45c0.52,0.92,1.47,1.15,2.28,1.2
			c0.65,0.04,2.7,0.14,5.36-2.66l-0.82,3.09c-2.9,0.88-4.8,2.02-5.82,3.6c-1.51,2.34-0.97,5.85,2.83,5.43
			c5.14-0.57,6.76-5.96,6.76-5.96l0.63-2.6c0.58-0.06,2.92-0.45,4.25-2.77c0.53,0.73,1.35,1.33,2.62,1.64
			c3.18,0.76,6.2-0.56,8.21-2.63l0.17-1.43c-1.57,1.22-2.74,1.9-3.93,2.19c-2.42,0.58-3.67-1.01-3.63-2.47
			c0.01-0.27,0.03-0.54,0.05-0.8c1.08-0.05,2.93-0.17,4.28-0.39c2.34-0.39,3.42-0.68,3.88-1.78c1.1-2.63-0.16-4.37-0.16-4.37
			C90.97,42.79,86.91,43.43,86.91,43.43z M48.63,61.03c0,0-0.88,4.12-3.28,3.85c-2.05-0.23-0.91-4.27,2.85-5.58
			c0.3-0.1,0.61-0.21,0.93-0.32L48.63,61.03z M71.76,60.97c0,0-0.89,4.12-3.28,3.86c-2.05-0.23-0.91-4.27,2.85-5.58
			c0.3-0.1,0.61-0.21,0.93-0.32L71.76,60.97z M89.61,47.17c-0.1,0.56-0.33,1.46-0.58,2.12c0,0-0.57,1.16-4.13,1.28
			c0.13-0.69,0.3-1.32,0.46-1.86c0.35-1.21,1.17-3.44,2.49-3.83C89.1,44.5,89.88,45.7,89.61,47.17z"/>
		<path class="st0" d="M22.05,32.82c-0.63-0.35-6.76-3.31-13.14-1c-5.75,2.08-8.88,10.77,2.01,15.01l-2.5,9.47
			c0,0,1.59-0.62,3.25-0.76c3.14,1.5,4.72,1.39,5.76,1.4c2.45,0.01,5.74-0.68,8.02-5.57c0.5-1.06,1.06-2.58,1.42-4.06
			c0.5-2.04,0.8-3.72,0.9-5.41C27.97,38.15,26.71,35.39,22.05,32.82z M23.13,42.97c-0.34,1.86-0.66,3.12-1.11,4.94
			c-1.6,6.54-5.43,7.4-8.14,6.72l4.71-18.17c-3.59,1.72-5.24,1.01-5.24,1.01l-2.1,8.05c-2.11-1.19-4.56-3.28-4.45-6.51
			c0.12-3.73,3.91-5.4,7.53-5.03C22.5,34.81,23.92,38.71,23.13,42.97z"/>
		<g>
			<path class="st0" d="M95.41,53.48L95.41,53.48c0.06-0.02,0.28-0.11,0.28-0.43c0-0.29-0.19-0.46-0.56-0.46h-0.81v1.7h0.3v-0.7
				h0.44c0.27,0,0.34,0.14,0.34,0.45c0,0.08,0,0.18,0.05,0.25h0.32c-0.06-0.07-0.09-0.25-0.09-0.45
				C95.66,53.57,95.51,53.5,95.41,53.48z M95.1,53.36h-0.49v-0.53h0.48c0.15,0,0.29,0.04,0.29,0.26
				C95.39,53.27,95.29,53.36,95.1,53.36z"/>
			<path class="st0" d="M94.98,51.86c-0.87,0-1.58,0.71-1.58,1.58c0,0.87,0.71,1.58,1.58,1.58c0.87,0,1.58-0.71,1.58-1.58
				C96.56,52.57,95.85,51.86,94.98,51.86z M94.98,54.74c-0.72,0-1.3-0.58-1.3-1.3c0-0.72,0.58-1.3,1.3-1.3c0.72,0,1.3,0.58,1.3,1.3
				C96.28,54.15,95.69,54.74,94.98,54.74z"/>
		</g>
	</g>
	<g>
		<path class="st0" d="M8.18,61.49l-0.27,1.07h34.44c0.08-0.36,0.2-0.72,0.36-1.07H8.18z"/>
		<path class="st0" d="M76.71,61.49c-0.13,0.3-0.3,0.67-0.53,1.07h15.83l0.27-1.07H76.71z"/>
		<path class="st0" d="M53.4,61.49c-0.12,0.3-0.28,0.67-0.49,1.07h12.56c0.08-0.36,0.19-0.72,0.35-1.07H53.4z"/>
	</g>
</g>
</svg>
