<?xml version="1.0" encoding="utf-8"?>
<!-- Generator: Adobe Illustrator 24.1.1, SVG Export Plug-In . SVG Version: 6.00 Build 0)  -->
<svg version="1.1" id="Layer_1" xmlns="http://www.w3.org/2000/svg" xmlns:xlink="http://www.w3.org/1999/xlink" x="0px" y="0px"
	 viewBox="0 0 100 100" style="enable-background:new 0 0 100 100;" xml:space="preserve">
<g>
	<polygon points="26.24,64.01 33.91,64.01 33.31,67.36 30.16,67.36 29.57,70.55 32.38,70.55 31.79,73.74 28.99,73.74 27.71,80.8 
		23.17,80.8 	"/>
	<path d="M44.26,71.31h-4.54l0.54-2.92c0.15-0.85,0.2-1.37,0.15-1.58c-0.06-0.21-0.25-0.32-0.59-0.32c-0.37,0-0.63,0.13-0.78,0.38
		c-0.15,0.25-0.3,0.81-0.46,1.66l-1.43,7.8c-0.15,0.81-0.2,1.35-0.14,1.59c0.06,0.25,0.26,0.37,0.61,0.37
		c0.34,0,0.58-0.12,0.73-0.37c0.15-0.25,0.31-0.84,0.48-1.76l0.39-2.11h4.53l-0.12,0.65c-0.32,1.74-0.67,2.97-1.06,3.7
		c-0.39,0.72-1.06,1.37-2.04,1.91s-2.1,0.82-3.37,0.82c-1.32,0-2.38-0.23-3.15-0.69s-1.23-1.11-1.36-1.93s-0.04-2.05,0.26-3.7
		l0.89-4.91c0.22-1.21,0.43-2.11,0.63-2.72c0.2-0.6,0.56-1.19,1.09-1.75s1.2-1,2.02-1.32c0.81-0.33,1.71-0.48,2.7-0.48
		c1.33,0,2.39,0.25,3.17,0.75s1.24,1.11,1.37,1.86c0.14,0.74,0.07,1.89-0.23,3.46L44.26,71.31z"/>
	<path d="M61.2,64.01L58.13,80.8h-3.96l2.07-11.34L52.59,80.8h-2.81l0.37-11.08L48.11,80.8h-3.96l3.07-16.79h5.86
		c-0.01,1.01-0.05,2.2-0.11,3.57l-0.14,4.27L55.32,64L61.2,64.01L61.2,64.01z"/>
	<path d="M77,64.01L73.93,80.8h-3.96l2.07-11.34L68.38,80.8h-2.81l0.37-11.08L63.91,80.8h-3.96l3.07-16.79h5.86
		c-0.01,1.01-0.05,2.2-0.11,3.57l-0.14,4.27L71.11,64L77,64.01L77,64.01z"/>
	<polygon points="67.97,27.37 36.72,38.8 36.72,27.37 67.97,16 	"/>
	<polygon points="63.71,31.79 36.72,41.61 42.4,57.23 53.76,57.23 51.18,50.13 44.55,50.13 51.42,47.65 63.71,43.18 	"/>
</g>
</svg>
