<?xml version="1.0" encoding="utf-8"?>
<!-- Generator: Adobe Illustrator 24.1.1, SVG Export Plug-In . SVG Version: 6.00 Build 0)  -->
<svg version="1.1" id="Layer_1" xmlns="http://www.w3.org/2000/svg" xmlns:xlink="http://www.w3.org/1999/xlink" x="0px" y="0px"
	 viewBox="0 0 150 100" style="enable-background:new 0 0 150 100;" xml:space="preserve">
<style type="text/css">
	.st0{fill:#231F20;}
</style>
<g>
	<polygon class="st0" points="1,57.07 3.81,42.77 12.58,42.77 11.86,46.37 6.83,46.37 6.39,48.59 10.4,48.59 9.73,52.03 5.71,52.03 
		4.72,57.07 	"/>
	<path class="st0" d="M11.18,57.07l2.81-14.3h5.55c1.74,0,2.91,0.32,3.52,0.96c0.61,0.64,0.78,1.69,0.49,3.16
		c-0.17,0.87-0.47,1.6-0.88,2.17c-0.41,0.58-0.98,1.04-1.68,1.37c0.61,0.17,1.02,0.5,1.21,0.99c0.2,0.49,0.21,1.22,0.05,2.18
		l-0.32,1.98c0,0.02,0,0.03,0,0.05c-0.09,0.56-0.05,0.87,0.15,0.88l-0.11,0.53h-3.75c0-0.34,0-0.64,0.02-0.9
		c0.02-0.26,0.05-0.46,0.06-0.6l0.27-1.43c0.14-0.73,0.14-1.25-0.05-1.56c-0.18-0.31-0.55-0.44-1.14-0.44h-1.59l-0.98,4.93h-3.63
		V57.07z M16.46,48.92h1.69c0.6,0,1.02-0.11,1.28-0.29c0.26-0.2,0.44-0.53,0.55-1.04c0.09-0.5,0.06-0.85-0.14-1.05
		c-0.18-0.2-0.61-0.29-1.27-0.29h-1.6L16.46,48.92z"/>
	<path class="st0" d="M22.34,57.07l6.9-14.3h3.77l1.27,14.3h-3.69l-0.06-1.89h-3.69l-0.82,1.89H22.34z M28.08,52.17h2.33l-0.18-4.94
		L28.08,52.17z"/>
	<path class="st0" d="M35.33,57.07l2.81-14.3h3.54l1.94,6.64c0.06,0.18,0.12,0.46,0.17,0.79c0.05,0.35,0.08,0.76,0.11,1.24
		c0.02-0.24,0.05-0.53,0.09-0.84c0.05-0.31,0.11-0.67,0.2-1.1l1.33-6.74h3.55l-2.81,14.3H42.7l-1.95-6.59
		c-0.06-0.2-0.12-0.47-0.17-0.82s-0.09-0.76-0.12-1.22c-0.02,0.24-0.05,0.52-0.08,0.79s-0.11,0.66-0.2,1.16l-1.31,6.7H35.33z"/>
	<polygon class="st0" points="48.45,57.07 51.26,42.77 54.95,42.77 54.02,47.5 58.29,42.77 62.61,42.77 57.44,48.04 60.33,57.07 
		55.9,57.07 54.19,51.35 53.04,52.52 52.14,57.07 	"/>
	<polygon class="st0" points="61.02,57.07 63.83,42.77 73.09,42.77 72.42,46.21 66.88,46.21 66.51,48.1 71.2,48.1 70.54,51.38 
		65.86,51.38 65.43,53.59 71.2,53.59 70.51,57.07 	"/>
	<path class="st0" d="M72.25,57.07l2.81-14.3h3.54l1.94,6.64c0.06,0.18,0.12,0.46,0.17,0.79c0.05,0.35,0.08,0.76,0.11,1.24
		c0.02-0.24,0.05-0.53,0.09-0.84c0.05-0.31,0.11-0.67,0.2-1.1l1.33-6.74h3.55l-2.81,14.3h-3.55l-1.95-6.59
		c-0.06-0.2-0.12-0.47-0.17-0.82s-0.09-0.76-0.12-1.22c-0.02,0.24-0.05,0.52-0.08,0.79c-0.05,0.27-0.11,0.66-0.2,1.16l-1.31,6.7
		H72.25z"/>
	<path class="st0" d="M88.87,57.07h-3.37l2.81-14.3h4.53l0.2,7.13c0,0.09,0,0.32,0,0.67s-0.02,0.82-0.02,1.43
		c0.17-0.47,0.32-0.9,0.46-1.25c0.14-0.37,0.24-0.63,0.32-0.81l3.05-7.16h4.53l-2.81,14.28H95.2l1.42-7.03
		c0.09-0.43,0.17-0.84,0.24-1.25c0.08-0.4,0.17-0.82,0.26-1.25c-0.27,0.73-0.58,1.54-0.93,2.41l-0.05,0.12l-2.81,7h-2.59l-0.11-6.84
		c-0.02-0.31,0-0.67,0-1.07c0.02-0.4,0.03-0.95,0.05-1.63c-0.11,0.61-0.2,1.14-0.27,1.59c-0.08,0.44-0.14,0.79-0.2,1.05L88.87,57.07
		z"/>
	<path class="st0" d="M101.67,49.93c0.46-2.33,1.36-4.17,2.7-5.51s2.94-2.01,4.81-2.01s3.19,0.67,4.01,2.01
		c0.81,1.34,0.99,3.19,0.53,5.51s-1.36,4.17-2.7,5.51s-2.94,2.03-4.79,2.03c-1.86,0-3.2-0.67-4.01-2.03
		C101.38,54.09,101.21,52.25,101.67,49.93 M105.42,49.93c-0.26,1.36-0.27,2.35-0.03,2.98c0.24,0.63,0.75,0.95,1.54,0.95
		c0.78,0,1.4-0.32,1.89-0.95c0.49-0.63,0.87-1.62,1.13-2.99c0.27-1.36,0.29-2.36,0.05-2.99c-0.24-0.63-0.75-0.95-1.53-0.95
		s-1.42,0.32-1.91,0.95C106.06,47.58,105.68,48.57,105.42,49.93"/>
	<path class="st0" d="M113.99,57.07l2.81-14.3h3.54l1.94,6.64c0.06,0.18,0.12,0.46,0.17,0.79c0.05,0.35,0.08,0.76,0.11,1.24
		c0.02-0.24,0.05-0.53,0.09-0.84c0.05-0.31,0.11-0.67,0.2-1.1l1.33-6.74h3.55l-2.81,14.3h-3.55l-1.95-6.59
		c-0.06-0.2-0.12-0.47-0.17-0.82s-0.09-0.76-0.12-1.22c-0.02,0.24-0.05,0.52-0.08,0.79c-0.05,0.27-0.11,0.66-0.2,1.16l-1.33,6.7
		H113.99z"/>
	<path class="st0" d="M128.03,49.93c0.46-2.33,1.36-4.17,2.7-5.51s2.94-2.01,4.81-2.01c1.86,0,3.19,0.67,4,2.01s0.99,3.19,0.53,5.51
		s-1.36,4.17-2.7,5.51c-1.34,1.34-2.94,2.03-4.81,2.03c-1.86,0-3.2-0.67-4.01-2.03C127.76,54.09,127.57,52.25,128.03,49.93
		 M131.78,49.93c-0.27,1.36-0.27,2.35-0.03,2.98c0.24,0.63,0.75,0.95,1.54,0.95c0.78,0,1.4-0.32,1.89-0.95
		c0.49-0.63,0.87-1.62,1.13-2.99c0.27-1.36,0.29-2.36,0.05-2.99c-0.24-0.63-0.75-0.95-1.53-0.95c-0.78,0-1.42,0.32-1.91,0.95
		C132.42,47.58,132.04,48.57,131.78,49.93"/>
	<path class="st0" d="M144.14,57.19c-1.11,0-1.94-0.31-2.49-0.93c-0.6-0.66-0.76-1.56-0.49-2.69c0.27-1.14,0.87-2.03,1.79-2.7
		c0.85-0.63,1.83-0.93,2.94-0.93c1.11,0,1.94,0.31,2.49,0.93c0.6,0.66,0.76,1.56,0.49,2.7c-0.27,1.13-0.87,2.03-1.79,2.69
		C146.23,56.89,145.26,57.19,144.14,57.19 M145.73,50.66c-0.87,0-1.65,0.26-2.32,0.76c-0.7,0.52-1.14,1.24-1.37,2.14
		c-0.21,0.9-0.11,1.6,0.34,2.14c0.43,0.52,1.08,0.76,1.95,0.76c0.87,0,1.65-0.26,2.33-0.78c0.69-0.52,1.13-1.22,1.36-2.12
		c0.21-0.9,0.11-1.62-0.34-2.14C147.25,50.92,146.6,50.66,145.73,50.66 M145.85,55.77c-0.15,0-0.26-0.06-0.32-0.17l-1.04-1.72
		c-0.05-0.09-0.06-0.17-0.05-0.26c0.05-0.18,0.18-0.29,0.4-0.32c0.05,0,0.14-0.02,0.29-0.02c0.23,0,0.43-0.05,0.61-0.14
		c0.17-0.09,0.29-0.26,0.35-0.5c0.09-0.4-0.14-0.6-0.7-0.6h-0.6L144,55.3c-0.02,0.06-0.03,0.11-0.05,0.14
		c-0.03,0.09-0.11,0.17-0.21,0.24c-0.11,0.06-0.21,0.09-0.32,0.09s-0.2-0.03-0.27-0.09s-0.11-0.14-0.09-0.24
		c0-0.05,0.02-0.08,0.03-0.14l0.96-3.97h1.4c0.56,0,0.98,0.08,1.24,0.21c0.34,0.2,0.46,0.55,0.34,1.04
		c-0.17,0.69-0.64,1.11-1.45,1.25l0.79,1.21c0.06,0.11,0.08,0.2,0.06,0.31c-0.03,0.12-0.11,0.21-0.21,0.31
		C146.08,55.74,145.96,55.77,145.85,55.77"/>
</g>
</svg>
