<?xml version="1.0" encoding="utf-8"?>
<!-- Generator: Adobe Illustrator 24.1.1, SVG Export Plug-In . SVG Version: 6.00 Build 0)  -->
<svg version="1.1" id="Layer_1" xmlns="http://www.w3.org/2000/svg" xmlns:xlink="http://www.w3.org/1999/xlink" x="0px" y="0px"
	 viewBox="0 0 100 100" style="enable-background:new 0 0 100 100;" xml:space="preserve">
<style type="text/css">
	.st0{fill:#231F20;}
</style>
<g>
	<path d="M18.52,63.63h-2.46c0.02,0.27,0.07,0.47,0.15,0.6c0.12,0.2,0.27,0.3,0.46,0.3c0.11,0,0.2-0.03,0.28-0.1
		c0.08-0.06,0.15-0.17,0.23-0.33l1.27,0.15c-0.17,0.42-0.4,0.75-0.67,0.96c-0.27,0.22-0.64,0.33-1.1,0.33
		c-0.35,0-0.65-0.07-0.91-0.2c-0.19-0.1-0.38-0.27-0.55-0.51c-0.26,0.25-0.51,0.43-0.75,0.54c-0.23,0.11-0.5,0.16-0.78,0.16
		c-0.43,0-0.76-0.12-0.97-0.36c-0.22-0.24-0.33-0.55-0.33-0.94c0-0.19,0.03-0.38,0.1-0.55c0.07-0.17,0.15-0.31,0.26-0.41
		c0.14-0.13,0.29-0.23,0.45-0.31c0.07-0.03,0.26-0.09,0.55-0.16s0.48-0.12,0.56-0.15c0.14-0.05,0.31-0.11,0.5-0.2
		c0-0.22-0.04-0.37-0.1-0.46c-0.07-0.08-0.18-0.12-0.36-0.12c-0.18,0-0.32,0.04-0.41,0.13c-0.09,0.08-0.15,0.22-0.19,0.4l-1.25-0.19
		c0.06-0.3,0.13-0.52,0.22-0.67c0.11-0.21,0.28-0.37,0.52-0.5c0.23-0.13,0.56-0.19,0.98-0.19c0.34,0,0.61,0.04,0.83,0.12
		c0.16,0.06,0.33,0.16,0.51,0.32c0.2-0.16,0.37-0.28,0.53-0.34c0.16-0.07,0.35-0.1,0.57-0.1c0.33,0,0.61,0.06,0.84,0.19
		c0.24,0.12,0.43,0.29,0.58,0.5s0.26,0.42,0.32,0.63c0.08,0.28,0.12,0.66,0.12,1.15C18.52,63.32,18.52,63.63,18.52,63.63z
		 M14.8,63.31l-0.4,0.17c-0.05,0.02-0.1,0.04-0.13,0.05c-0.21,0.05-0.36,0.13-0.44,0.24s-0.13,0.22-0.13,0.33
		c0,0.13,0.03,0.24,0.11,0.33c0.07,0.09,0.16,0.13,0.28,0.13s0.24-0.04,0.36-0.12s0.22-0.2,0.28-0.36c0.05-0.12,0.07-0.27,0.07-0.46
		C14.8,63.62,14.8,63.31,14.8,63.31z M15.34,59.17h1.12l-1.03,1.26H14.8L15.34,59.17z M17.22,62.81c-0.02-0.29-0.07-0.51-0.17-0.67
		c-0.09-0.16-0.23-0.24-0.4-0.24c-0.15,0-0.29,0.07-0.39,0.22c-0.11,0.15-0.18,0.38-0.21,0.7h1.17V62.81z"/>
	<path d="M28.61,60.98h1.21v0.65c0.17-0.27,0.35-0.47,0.53-0.58c0.18-0.12,0.39-0.17,0.64-0.17c0.27,0,0.48,0.06,0.64,0.19
		c0.16,0.13,0.29,0.31,0.39,0.56c0.2-0.29,0.39-0.49,0.56-0.6c0.17-0.11,0.37-0.16,0.62-0.16c0.36,0,0.65,0.14,0.85,0.43
		c0.2,0.29,0.31,0.73,0.31,1.34v2.81h-1.3V62.9c0-0.2-0.03-0.35-0.09-0.45c-0.09-0.15-0.2-0.23-0.33-0.23
		c-0.15,0-0.28,0.07-0.37,0.22s-0.14,0.38-0.14,0.7v2.31h-1.3v-2.46c0-0.2-0.01-0.33-0.03-0.4c-0.03-0.11-0.08-0.2-0.14-0.27
		c-0.07-0.07-0.15-0.1-0.24-0.1c-0.15,0-0.27,0.07-0.37,0.22s-0.14,0.39-0.14,0.73v2.28h-1.3C28.61,65.45,28.61,60.98,28.61,60.98z"
		/>
	<path d="M44.35,59.27h1.31v2.14c0.13-0.18,0.28-0.31,0.44-0.4c0.17-0.09,0.35-0.14,0.55-0.14c0.41,0,0.75,0.2,1.02,0.59
		s0.41,0.95,0.41,1.69c0,0.49-0.06,0.92-0.19,1.29c-0.12,0.37-0.29,0.65-0.51,0.83c-0.22,0.18-0.46,0.28-0.73,0.28
		c-0.23,0-0.44-0.07-0.63-0.19c-0.14-0.1-0.3-0.29-0.47-0.57v0.66h-1.22v-6.18H44.35z M45.65,63.2c0,0.38,0.05,0.66,0.16,0.84
		s0.25,0.26,0.42,0.26c0.16,0,0.29-0.09,0.39-0.25c0.11-0.17,0.16-0.46,0.16-0.86c0-0.35-0.05-0.61-0.15-0.78
		c-0.1-0.17-0.23-0.25-0.38-0.25c-0.18,0-0.32,0.09-0.43,0.26C45.71,62.59,45.65,62.85,45.65,63.2"/>
	<rect x="58.46" y="59.43" width="1.3" height="6.18"/>
	<path d="M73.61,63.64H71c0.02,0.28,0.08,0.48,0.17,0.61c0.13,0.19,0.29,0.29,0.49,0.29c0.13,0,0.25-0.04,0.36-0.13
		c0.07-0.05,0.15-0.15,0.23-0.28l1.28,0.16c-0.2,0.45-0.43,0.77-0.71,0.97s-0.67,0.29-1.19,0.29c-0.45,0-0.8-0.08-1.06-0.25
		c-0.26-0.17-0.47-0.43-0.64-0.8c-0.17-0.36-0.25-0.79-0.25-1.28c0-0.7,0.17-1.27,0.51-1.7c0.34-0.43,0.81-0.65,1.41-0.65
		c0.49,0,0.87,0.1,1.15,0.29c0.28,0.19,0.5,0.47,0.64,0.84c0.15,0.37,0.22,0.85,0.22,1.44C73.61,63.44,73.61,63.64,73.61,63.64z
		 M72.29,62.82c-0.03-0.33-0.09-0.57-0.2-0.71s-0.25-0.21-0.43-0.21c-0.21,0-0.37,0.11-0.5,0.32c-0.08,0.14-0.13,0.34-0.15,0.6
		H72.29z"/>
	<path d="M83.46,60.98h1.22v0.73c0.12-0.32,0.24-0.54,0.36-0.65c0.12-0.12,0.28-0.18,0.46-0.18c0.19,0,0.4,0.08,0.63,0.24l-0.4,1.22
		c-0.15-0.08-0.27-0.13-0.36-0.13c-0.17,0-0.3,0.09-0.4,0.28c-0.13,0.26-0.2,0.75-0.2,1.47v1.5h-1.31V60.98z"/>
	<path class="st0" d="M19.03,54.64c-0.08,0.1-0.19,0.14-0.35,0.14h-7.46c-0.16,0-0.27-0.05-0.35-0.14c-0.08-0.1-0.12-0.19-0.12-0.3
		c0-0.12,0.04-0.22,0.12-0.31s0.19-0.13,0.35-0.13h0.36h0.38c0.27,0,0.49-0.11,0.66-0.33s0.29-0.46,0.36-0.71
		c0.01-0.07,0.02-0.15,0.03-0.22c0.01-0.07,0.01-0.15,0.01-0.22c0-0.16-0.02-0.32-0.06-0.47s-0.1-0.31-0.17-0.45l-1.1-2.63H7.05
		L5.91,51.5c-0.06,0.15-0.11,0.3-0.16,0.45c-0.05,0.15-0.07,0.31-0.07,0.47c0,0.07,0,0.15,0.01,0.22s0.02,0.15,0.03,0.22
		c0.07,0.25,0.19,0.49,0.35,0.71c0.16,0.22,0.38,0.33,0.67,0.33h0.74c0.15,0,0.27,0.04,0.35,0.13s0.12,0.19,0.12,0.31
		c0,0.1-0.04,0.2-0.12,0.3s-0.19,0.14-0.35,0.14h-2.8H1.87c-0.14,0-0.25-0.05-0.33-0.14c-0.08-0.1-0.12-0.19-0.12-0.3
		c0-0.12,0.04-0.22,0.12-0.31s0.19-0.13,0.33-0.13h0.04c0.54,0,1.05-0.22,1.54-0.65s0.91-0.92,1.25-1.45
		c0.13-0.18,0.24-0.36,0.34-0.54c0.1-0.18,0.18-0.36,0.25-0.52l4.8-10.91c0.04-0.07,0.1-0.13,0.17-0.18
		c0.07-0.04,0.15-0.07,0.23-0.07h0.04h0.04c0.06,0.01,0.11,0.04,0.17,0.09c0.06,0.04,0.1,0.1,0.13,0.15l4.74,11.19
		c0.06,0.12,0.11,0.24,0.17,0.36c0.06,0.13,0.12,0.25,0.19,0.36c0.15,0.25,0.33,0.49,0.52,0.73c0.19,0.24,0.39,0.46,0.6,0.66
		c0.23,0.19,0.47,0.36,0.74,0.52c0.27,0.15,0.55,0.23,0.85,0.23c0.15,0,0.27,0.04,0.35,0.13s0.12,0.19,0.12,0.31
		C19.15,54.44,19.11,54.54,19.03,54.64 M9.42,43.5L7.43,48h3.87L9.42,43.5z"/>
	<path class="st0" d="M39.83,54.64c-0.07,0.1-0.18,0.14-0.34,0.14h-7.02c-0.14,0-0.25-0.05-0.32-0.14c-0.07-0.1-0.11-0.19-0.11-0.3
		c0-0.12,0.04-0.22,0.11-0.31s0.18-0.13,0.32-0.13h0.2h0.18h0.1h0.07c0.44-0.04,0.8-0.21,1.09-0.5s0.43-0.67,0.43-1.14l-0.91-10.22
		L29.4,52.08c-0.03,0.07-0.07,0.13-0.13,0.18c-0.06,0.04-0.11,0.07-0.17,0.09h-0.04h-0.04c-0.08,0-0.16-0.02-0.23-0.07
		c-0.07-0.04-0.13-0.11-0.17-0.2l-3.66-8.72l-0.85,7.79v0.06v0.08c-0.01,0.01-0.02,0.03-0.02,0.05v0.08
		c0.01,0.62,0.21,1.17,0.59,1.64c0.38,0.48,0.88,0.75,1.5,0.83h0.2h0.18c0.15,0,0.27,0.04,0.34,0.13s0.11,0.19,0.11,0.31
		c0,0.1-0.03,0.2-0.11,0.3c-0.07,0.1-0.18,0.14-0.34,0.14H20.7c-0.14,0-0.25-0.05-0.32-0.14c-0.07-0.1-0.11-0.19-0.11-0.3
		c0-0.12,0.04-0.22,0.11-0.31s0.18-0.13,0.32-0.13c0.62,0,1.17-0.23,1.64-0.68c0.47-0.46,0.74-0.99,0.81-1.61l1.1-9.74
		c-0.04-0.06-0.09-0.12-0.14-0.19s-0.11-0.14-0.18-0.21c-0.17-0.21-0.37-0.4-0.59-0.57c-0.23-0.18-0.45-0.3-0.68-0.38
		c-0.07-0.03-0.14-0.05-0.2-0.05c-0.06-0.01-0.12-0.01-0.18-0.01H22h-0.29c-0.14,0-0.25-0.05-0.33-0.14
		c-0.08-0.1-0.12-0.19-0.12-0.3c0-0.12,0.04-0.22,0.12-0.31s0.19-0.13,0.33-0.13h2.11h2.12c0.03,0,0.05,0,0.07,0.01
		s0.05,0.02,0.07,0.03c0.03,0.01,0.06,0.04,0.09,0.07c0.04,0.03,0.07,0.05,0.1,0.07c0,0.01,0.01,0.03,0.02,0.04
		c0.01,0.02,0.02,0.03,0.02,0.04l3.66,8.7l3.7-8.76c0.03-0.07,0.08-0.13,0.16-0.15c0.08-0.03,0.17-0.04,0.26-0.04h4.61
		c0.15,0,0.27,0.04,0.34,0.13s0.11,0.19,0.11,0.31c0,0.1-0.03,0.2-0.11,0.3c-0.07,0.1-0.18,0.14-0.34,0.14h-0.57h-0.08h-0.08
		c-0.38,0.03-0.73,0.17-1.06,0.43c-0.32,0.26-0.48,0.6-0.47,1.03v0.07v0.04v0.04l0.91,10.44c0.03,0.29,0.16,0.56,0.4,0.78
		c0.24,0.23,0.5,0.39,0.78,0.5c0.1,0.03,0.2,0.06,0.3,0.08s0.19,0.03,0.28,0.03h0.2h0.18c0.15,0,0.27,0.04,0.34,0.13
		s0.11,0.19,0.11,0.31C39.94,54.44,39.9,54.54,39.83,54.64"/>
	<path class="st0" d="M54.02,50.69v0.23c0,1.15-0.42,2.08-1.25,2.79s-1.79,1.07-2.88,1.07h-2.15h-2.13H43.5h-2.15
		c-0.14,0-0.25-0.05-0.33-0.14c-0.08-0.1-0.12-0.19-0.12-0.3c0-0.12,0.04-0.22,0.12-0.31c0.08-0.09,0.19-0.13,0.33-0.13h0.28
		c0.37,0,0.67-0.13,0.92-0.4s0.37-0.58,0.37-0.95V41.8c0-0.37-0.12-0.68-0.37-0.95c-0.25-0.26-0.55-0.4-0.92-0.4h-0.28
		c-0.14,0-0.25-0.05-0.33-0.14c-0.08-0.1-0.12-0.19-0.12-0.3c0-0.12,0.04-0.22,0.12-0.31c0.08-0.09,0.19-0.13,0.33-0.13h6.24
		c0.2,0,0.4,0.01,0.6,0.03c0.2,0.02,0.41,0.06,0.6,0.1c0.92,0.21,1.75,0.62,2.52,1.25c0.76,0.63,1.18,1.45,1.25,2.48v0.06v0.06v0.06
		v0.05c0,0.62-0.17,1.18-0.5,1.68s-0.74,0.91-1.24,1.21c0.28,0.1,0.55,0.23,0.81,0.39c0.26,0.15,0.5,0.33,0.73,0.52
		c0.45,0.38,0.82,0.83,1.11,1.35c0.29,0.52,0.46,1.07,0.52,1.66C54.01,50.53,54.02,50.61,54.02,50.69 M49.49,43.06
		c-0.02-0.12-0.05-0.23-0.09-0.35c-0.17-0.56-0.46-1.07-0.88-1.55c-0.42-0.47-0.91-0.71-1.49-0.71c-0.35,0-0.66,0.13-0.92,0.39
		s-0.39,0.58-0.39,0.96v4.44h2.18c0.48-0.01,0.85-0.21,1.1-0.6c0.25-0.38,0.42-0.8,0.51-1.26c0.03-0.12,0.05-0.24,0.05-0.35
		c0.01-0.12,0.01-0.23,0.01-0.33v-0.09v-0.07c-0.01-0.03-0.02-0.06-0.02-0.09v-0.07C49.52,43.29,49.51,43.18,49.49,43.06
		 M50.97,50.4c-0.01-0.05-0.02-0.1-0.03-0.14c-0.13-0.78-0.47-1.5-1.03-2.15c-0.56-0.65-1.24-0.98-2.04-0.98H46.8h-1.09v5.43
		c0,0.37,0.13,0.68,0.38,0.95s0.56,0.4,0.91,0.4h1.69c0.66,0,1.21-0.3,1.65-0.9c0.44-0.6,0.66-1.31,0.66-2.12V50.8v-0.1
		c-0.01-0.01-0.02-0.04-0.02-0.07v-0.09C50.98,50.5,50.97,50.45,50.97,50.4"/>
	<path class="st0" d="M67.89,51.17c-0.14,0.35-0.26,0.69-0.36,1.03c-0.07,0.25-0.13,0.5-0.17,0.76s-0.06,0.52-0.06,0.78
		c0,0.09,0,0.18,0.01,0.26c0.01,0.09,0.02,0.18,0.03,0.29v0.02v0.02c0,0.1-0.04,0.2-0.13,0.3c-0.08,0.1-0.18,0.14-0.3,0.14h-6.27
		h-6.29c-0.14,0-0.25-0.05-0.32-0.14c-0.07-0.1-0.11-0.19-0.11-0.3c0-0.12,0.04-0.22,0.11-0.31s0.18-0.13,0.32-0.13h0.38h0.38
		c0.35,0,0.66-0.13,0.91-0.4s0.38-0.58,0.38-0.95V41.8c0-0.37-0.13-0.68-0.38-0.95c-0.25-0.26-0.56-0.4-0.91-0.4h-0.38h-0.38
		c-0.14,0-0.25-0.05-0.32-0.14c-0.07-0.1-0.11-0.19-0.11-0.3c0-0.12,0.04-0.22,0.11-0.31s0.18-0.13,0.32-0.13h6.39
		c0.15,0,0.27,0.04,0.34,0.13s0.11,0.19,0.11,0.31c0,0.1-0.04,0.2-0.11,0.3s-0.18,0.14-0.34,0.14h-0.13h-0.15
		c-0.35,0-0.66,0.13-0.91,0.4s-0.38,0.58-0.38,0.95v10.75c0,0.37,0.13,0.68,0.38,0.95s0.56,0.4,0.91,0.4c0.66,0,1.31-0.1,1.95-0.3
		c0.63-0.2,1.23-0.47,1.8-0.83c0.37-0.22,0.72-0.46,1.05-0.72c0.33-0.26,0.64-0.52,0.92-0.78c0.28-0.28,0.54-0.56,0.78-0.83
		s0.44-0.53,0.61-0.76c0.03-0.06,0.07-0.1,0.13-0.13c0.06-0.03,0.12-0.05,0.19-0.07h0.04h0.04h0.04c0.01,0,0.03,0.01,0.04,0.02
		c0.03,0.02,0.05,0.02,0.06,0.02c0.07,0.04,0.13,0.11,0.17,0.19c0.04,0.08,0.06,0.17,0.04,0.25v0.06c0,0.02-0.01,0.05-0.02,0.08
		C68.18,50.47,68.03,50.83,67.89,51.17"/>
	<path class="st0" d="M82.3,50.18c-0.01,0.02-0.02,0.04-0.03,0.06c-0.23,0.57-0.44,1.16-0.63,1.74c-0.2,0.59-0.3,1.19-0.3,1.81v0.24
		c0,0.09,0.01,0.18,0.02,0.27v0.02v0.02c0,0.1-0.04,0.2-0.13,0.3c-0.08,0.1-0.18,0.14-0.3,0.14H77.9h-3.02h-3.04h-3.05
		c-0.14,0-0.25-0.05-0.33-0.14c-0.08-0.1-0.12-0.19-0.12-0.3c0-0.12,0.04-0.22,0.12-0.31s0.19-0.13,0.33-0.13h0.07h0.07h0.06h0.06
		c0.35,0,0.66-0.13,0.91-0.4c0.25-0.26,0.38-0.58,0.38-0.95V41.8c0-0.37-0.13-0.68-0.38-0.95c-0.25-0.26-0.56-0.4-0.91-0.4h-0.27
		c-0.14,0-0.25-0.05-0.33-0.14c-0.08-0.1-0.12-0.19-0.12-0.3c0-0.12,0.04-0.22,0.12-0.31s0.19-0.13,0.33-0.13h5.78h5.76
		c0.11,0,0.21,0.04,0.3,0.13c0.08,0.09,0.13,0.19,0.13,0.31c0.01,0.63,0.05,1.27,0.1,1.91c0.05,0.64,0.17,1.26,0.37,1.87
		c0,0.02,0,0.03,0.01,0.04c0.01,0.01,0.01,0.03,0.01,0.04v0.04v0.04c0,0.1-0.03,0.19-0.08,0.25c-0.06,0.07-0.12,0.11-0.19,0.14
		c-0.01,0.01-0.03,0.02-0.05,0.02h-0.07c-0.07,0-0.14-0.03-0.22-0.1s-0.15-0.16-0.22-0.28c-0.06-0.1-0.11-0.2-0.16-0.29
		s-0.1-0.18-0.16-0.26c-0.23-0.4-0.47-0.75-0.74-1.07s-0.63-0.62-1.1-0.92c-0.58-0.37-1.19-0.63-1.84-0.78
		c-0.65-0.16-1.3-0.23-1.97-0.23c-0.35,0-0.66,0.13-0.91,0.4s-0.38,0.58-0.38,0.95v4.44h1.27c0.11,0,0.23,0,0.34-0.01
		c0.11-0.01,0.23-0.03,0.34-0.06c0.59-0.09,1.14-0.32,1.64-0.68c0.5-0.37,0.75-0.85,0.75-1.46v-0.57c0-0.16,0.05-0.28,0.14-0.35
		s0.19-0.11,0.29-0.11c0.11,0,0.21,0.04,0.3,0.11c0.08,0.07,0.13,0.19,0.13,0.35v6.82c0,0.15-0.04,0.26-0.13,0.33
		c-0.08,0.07-0.18,0.11-0.3,0.11c-0.1,0-0.19-0.04-0.29-0.11c-0.09-0.07-0.14-0.18-0.14-0.33v-0.95c0-0.59-0.25-1.07-0.74-1.44
		s-1.04-0.6-1.63-0.71c-0.11-0.03-0.22-0.05-0.33-0.06c-0.11-0.01-0.21-0.01-0.33-0.01h-1.31v5.43c0,0.37,0.13,0.68,0.38,0.95
		s0.56,0.4,0.91,0.4c0.66,0,1.31-0.1,1.96-0.29c0.64-0.19,1.27-0.47,1.87-0.84c0.63-0.38,1.24-0.84,1.83-1.37
		c0.58-0.53,1.1-1.1,1.53-1.72c0.03-0.06,0.08-0.1,0.15-0.13c0.07-0.03,0.14-0.04,0.21-0.04c0.03,0,0.06,0,0.1,0.01
		c0.03,0.01,0.06,0.02,0.07,0.03c0.07,0.04,0.13,0.1,0.17,0.18c0.04,0.07,0.06,0.15,0.04,0.24V50c0,0.02-0.01,0.05-0.02,0.08
		C82.32,50.13,82.31,50.16,82.3,50.18"/>
	<path class="st0" d="M99,54.5v0.04c0,0.1-0.03,0.19-0.08,0.26c-0.06,0.07-0.14,0.12-0.25,0.15c-0.06,0.01-0.12,0.03-0.18,0.04
		c-0.06,0.01-0.12,0.04-0.18,0.07c-0.04,0.01-0.08,0.03-0.13,0.03c-0.04,0.01-0.08,0.02-0.13,0.03c-0.11,0.03-0.22,0.06-0.32,0.08
		s-0.2,0.04-0.32,0.06c-0.1,0.01-0.2,0.03-0.31,0.03c-0.11,0.01-0.21,0.01-0.31,0.01c-0.48,0-0.92-0.08-1.32-0.24
		s-0.77-0.38-1.11-0.64c-0.51-0.43-0.95-0.95-1.32-1.56s-0.72-1.25-1.05-1.91c-0.06-0.13-0.12-0.26-0.18-0.39
		c-0.06-0.12-0.12-0.25-0.18-0.39c-0.16-0.34-0.31-0.67-0.48-0.99c-0.16-0.32-0.33-0.65-0.52-0.97c-0.01-0.03-0.03-0.06-0.05-0.1
		c-0.02-0.04-0.05-0.07-0.07-0.1c-0.1-0.18-0.21-0.33-0.33-0.45s-0.29-0.19-0.52-0.19h-1.44v5.17c0,0.37,0.13,0.68,0.38,0.95
		s0.56,0.4,0.91,0.4h0.24h0.22c0.15,0,0.27,0.04,0.34,0.13s0.11,0.19,0.11,0.31c0,0.1-0.04,0.2-0.11,0.3s-0.18,0.14-0.34,0.14h-6.28
		c-0.14,0-0.25-0.05-0.33-0.14c-0.08-0.1-0.12-0.19-0.12-0.3c0-0.12,0.04-0.22,0.12-0.31s0.19-0.13,0.33-0.13h0.47
		c0.35,0,0.65-0.13,0.9-0.4s0.37-0.58,0.37-0.95V41.8c0-0.35-0.12-0.67-0.36-0.94s-0.53-0.41-0.87-0.41h-0.44
		c-0.14,0-0.25-0.05-0.33-0.14c-0.08-0.1-0.12-0.19-0.12-0.3c0-0.12,0.04-0.22,0.12-0.31s0.19-0.13,0.33-0.13h6.94h0.06
		c0.27,0,0.55,0.02,0.84,0.06c0.29,0.04,0.58,0.1,0.88,0.19c0.93,0.25,1.78,0.7,2.56,1.35c0.77,0.65,1.16,1.49,1.16,2.52
		c0,1.25-0.41,2.17-1.23,2.75c-0.82,0.58-1.76,0.89-2.81,0.94c0.03,0.01,0.06,0.04,0.1,0.07c0.03,0.03,0.07,0.06,0.1,0.09
		c0.28,0.19,0.55,0.42,0.81,0.67c0.26,0.26,0.51,0.56,0.75,0.89c0.14,0.19,0.29,0.42,0.43,0.7c0.15,0.27,0.3,0.58,0.45,0.92
		c0.07,0.15,0.14,0.3,0.22,0.45s0.16,0.31,0.24,0.45c0.35,0.68,0.74,1.3,1.16,1.85c0.42,0.56,0.87,0.84,1.33,0.84
		c0.04,0,0.08,0,0.13-0.01c0.04-0.01,0.08-0.02,0.13-0.03c0.07-0.03,0.14-0.06,0.22-0.08s0.15-0.04,0.22-0.05h0.03
		c0.01,0,0.02-0.01,0.03-0.02h0.03h0.03c0.11,0.01,0.2,0.06,0.26,0.12c0.06,0.07,0.11,0.14,0.14,0.23v0.03H99z M93.23,43.34
		c0-0.05-0.01-0.1-0.02-0.14c-0.06-0.69-0.31-1.32-0.76-1.89c-0.45-0.57-1.03-0.85-1.73-0.85h-1.21c-0.34,0-0.63,0.13-0.89,0.4
		c-0.25,0.27-0.38,0.58-0.38,0.95v4.7h2.52c0.71,0,1.28-0.28,1.71-0.85c0.44-0.57,0.68-1.2,0.74-1.89c0.01-0.04,0.02-0.09,0.02-0.14
		v-0.14C93.23,43.49,93.23,43.34,93.23,43.34z"/>
</g>
</svg>
