<?xml version="1.0" encoding="utf-8"?>
<!-- Generator: Adobe Illustrator 24.1.1, SVG Export Plug-In . SVG Version: 6.00 Build 0)  -->
<svg version="1.1" id="Layer_1" xmlns="http://www.w3.org/2000/svg" xmlns:xlink="http://www.w3.org/1999/xlink" x="0px" y="0px"
	 viewBox="0 0 100 100" style="enable-background:new 0 0 100 100;" xml:space="preserve">
<style type="text/css">
	.st0{fill:#D6001C;}
</style>
<g>
	<path class="st0" d="M98.88,49.05c-0.66-1.34-1.66-2.65-2.93-3.89c-1.26-1.23-2.81-2.4-4.61-3.49c-1.78-1.08-3.83-2.11-6.08-3.04
		c-4.57-1.88-9.88-3.36-15.81-4.38c-6.12-1.06-12.63-1.6-19.33-1.6s-13.21,0.54-19.33,1.6c-5.92,1.03-11.23,2.5-15.8,4.38
		c-2.26,0.93-4.3,1.95-6.08,3.04c-1.81,1.1-3.35,2.28-4.61,3.49c-1.29,1.25-2.27,2.56-2.93,3.89c-0.68,1.38-1.03,2.8-1.03,4.22
		c0,1.42,0.35,2.84,1.03,4.22c0.66,1.34,1.66,2.65,2.93,3.89c1.26,1.23,2.81,2.4,4.61,3.49c1.78,1.08,3.83,2.11,6.08,3.04
		c4.57,1.88,9.88,3.35,15.8,4.38c6.12,1.06,12.63,1.6,19.33,1.6s13.21-0.54,19.33-1.6c5.92-1.03,11.23-2.5,15.81-4.38
		c2.26-0.93,4.3-1.95,6.08-3.04c1.81-1.1,3.35-2.28,4.61-3.49c1.29-1.25,2.27-2.56,2.93-3.89c0.68-1.38,1.03-2.8,1.03-4.22
		C99.92,51.85,99.57,50.43,98.88,49.05z M94.81,53.27c0,2.17-1.16,4.27-3.44,6.26c-2.24,1.95-5.46,3.71-9.55,5.22
		c-8.46,3.12-19.71,4.83-31.69,4.83s-23.23-1.72-31.69-4.83c-4.1-1.51-7.32-3.27-9.55-5.22c-2.29-1.99-3.44-4.11-3.44-6.26
		C5.43,51.1,6.6,49,8.88,47c2.24-1.95,5.46-3.71,9.55-5.22c8.46-3.12,19.71-4.83,31.69-4.83s23.23,1.72,31.69,4.83
		c4.1,1.51,7.32,3.27,9.55,5.22C93.64,49,94.81,51.1,94.81,53.27z"/>
	<path class="st0" d="M62.66,44.31c-0.04-0.05-0.1-0.09-0.16-0.09H58.7c-0.08,0-0.15,0.05-0.18,0.12L54.43,54.9l1.15-10.47
		c0.01-0.05-0.01-0.11-0.05-0.15c-0.04-0.04-0.09-0.06-0.14-0.06h-4.32c-0.08,0-0.15,0.05-0.18,0.12l-4.42,10.45l1.49-10.34
		c0.01-0.06-0.01-0.11-0.05-0.16c-0.04-0.04-0.09-0.07-0.15-0.07h-4.12c-0.1,0-0.18,0.07-0.19,0.17l-1.79,15.78
		c-0.06,0.66,0.01,1.18,0.21,1.54c0.25,0.43,0.75,0.65,1.49,0.65H45c0.76,0,1.33-0.18,1.71-0.55c0.34-0.33,0.64-0.81,0.89-1.43
		l3.17-7.21l-0.68,6.99c-0.06,0.67,0.02,1.19,0.27,1.56c0.27,0.42,0.74,0.63,1.39,0.63h1.73c1.08,0,1.92-0.66,2.48-1.98l6.71-15.89
		C62.7,44.43,62.7,44.37,62.66,44.31z"/>
	<path class="st0" d="M71.26,51.22h-4.58l0.93-3.45h5.3c0.09,0,0.17-0.06,0.19-0.14l0.85-3.16c0.02-0.06,0-0.12-0.03-0.17
		c-0.04-0.05-0.09-0.08-0.15-0.08h-9.55c-0.09,0-0.17,0.06-0.19,0.14l-3.57,13.26c-0.21,0.8-0.31,1.48-0.27,2.06
		c0.04,0.62,0.22,1.14,0.56,1.52c0.63,0.74,1.81,1.09,3.6,1.09h4.81c0.09,0,0.17-0.06,0.19-0.14L70.21,59
		c0.02-0.06,0-0.12-0.03-0.17c-0.04-0.05-0.09-0.08-0.16-0.08h-4.14c-0.84,0-0.99-0.16-1-0.17c0,0-0.12-0.14,0.05-0.81l0.81-3.01
		h4.68c0.09,0,0.17-0.06,0.19-0.14l0.85-3.16c0.02-0.06,0-0.12-0.03-0.17C71.39,51.26,71.32,51.22,71.26,51.22z"/>
	<path class="st0" d="M85.17,44.21h-9.55c-0.09,0-0.17,0.06-0.19,0.14l-3.57,13.26c-0.21,0.79-0.31,1.48-0.27,2.06
		c0.04,0.62,0.22,1.14,0.56,1.52c0.63,0.74,1.81,1.09,3.59,1.09h4.81c0.09,0,0.17-0.06,0.19-0.14L81.59,59
		c0.02-0.06,0-0.12-0.03-0.17c-0.04-0.05-0.09-0.08-0.15-0.08h-4.14c-0.84,0-1-0.16-1-0.17c0,0-0.12-0.14,0.05-0.81l0.81-3.01h4.68
		c0.09,0,0.17-0.06,0.19-0.14l0.85-3.16c0.02-0.06,0-0.12-0.03-0.17c-0.04-0.05-0.09-0.08-0.15-0.08h-4.58l0.93-3.45h5.3
		c0.09,0,0.17-0.06,0.19-0.14l0.85-3.16c0.02-0.06,0-0.12-0.03-0.17C85.28,44.25,85.23,44.21,85.17,44.21z"/>
	<path class="st0" d="M41.11,45.44c-0.81-0.81-2.11-1.22-3.87-1.22h-5.08c-0.09,0-0.17,0.06-0.19,0.14l-4.75,17.7
		c-0.02,0.06,0,0.12,0.03,0.17c0.04,0.05,0.09,0.08,0.15,0.08h4.09c0.09,0,0.17-0.06,0.19-0.14l1.46-5.45h0.97
		c1.73,0,3.21-0.39,4.38-1.15c1.2-0.79,2.01-1.93,2.41-3.42l0.84-3.13C42.16,47.48,41.94,46.28,41.11,45.44z M35.55,47.77h0.88
		c0.39,0,0.68,0.08,0.87,0.22c0.11,0.09,0.12,0.38,0.01,0.78l-0.85,3.18c-0.12,0.46-0.33,0.77-0.61,0.94
		c-0.32,0.19-0.69,0.29-1.1,0.29H34.1L35.55,47.77z"/>
	<path class="st0" d="M27.52,46.04c-0.77-1.19-2.05-1.79-3.84-1.79c-1.7,0-3.3,0.57-4.75,1.7c-1.44,1.1-2.48,2.55-3.09,4.31
		c-0.29,0.82-0.58,1.75-0.93,2.95c-0.35,1.21-0.6,2.17-0.79,3c-0.45,1.9-0.26,3.36,0.6,4.48c0.87,1.09,2.16,1.66,3.85,1.66
		c1.88,0,3.52-0.57,4.85-1.71c1.35-1.11,2.34-2.55,2.94-4.29c0.71-1.96,1.32-4.08,1.72-5.96C28.48,48.67,28.28,47.21,27.52,46.04z
		 M19.45,58.88c-0.37,0-0.66-0.13-0.86-0.39c-0.38-0.48-0.44-1.37-0.17-2.5l0.67-2.54c0.33-1.14,0.61-2.06,0.85-2.74
		c0.6-1.79,1.75-2.98,2.84-2.98c0.55,0,0.89,0.26,1.05,0.81c0.17,0.58,0.16,1.28-0.03,2.06c-0.15,0.58-0.37,1.39-0.68,2.44
		c-0.33,1.14-0.6,2.02-0.87,2.75C21.51,57.9,20.62,58.88,19.45,58.88z"/>
</g>
</svg>
