<?xml version="1.0" encoding="utf-8"?>
<!-- Generator: Adobe Illustrator 24.1.1, SVG Export Plug-In . SVG Version: 6.00 Build 0)  -->
<svg version="1.1" id="Layer_1" xmlns="http://www.w3.org/2000/svg" xmlns:xlink="http://www.w3.org/1999/xlink" x="0px" y="0px"
	 viewBox="0 0 100 100" style="enable-background:new 0 0 100 100;" xml:space="preserve">
<style type="text/css">
	.st0{fill:#231F20;}
</style>
<g>
	<g>
		<path class="st0" d="M4.79,57.02V46.05h-4v-2.32H11.6v2.32H7.57v10.97H4.79z"/>
		<path class="st0" d="M16.76,57.02c-0.08-0.25-0.13-0.55-0.16-0.88c-0.31,0.35-0.71,0.62-1.22,0.83c-0.51,0.21-1.09,0.31-1.76,0.31
			c-1.13,0-1.96-0.25-2.49-0.75s-0.79-1.15-0.79-1.95c0-0.71,0.11-1.27,0.34-1.69c0.23-0.42,0.54-0.75,0.94-0.99
			s0.88-0.42,1.43-0.53s1.16-0.22,1.81-0.31c0.65-0.09,1.09-0.22,1.32-0.37c0.23-0.15,0.34-0.4,0.34-0.75
			c0-0.32-0.15-0.57-0.45-0.75c-0.3-0.18-0.7-0.27-1.21-0.27c-0.6,0-1.03,0.13-1.29,0.4s-0.42,0.62-0.49,1.06h-2.42
			c0.01-0.51,0.1-0.97,0.25-1.4s0.4-0.79,0.74-1.1c0.34-0.31,0.78-0.54,1.33-0.71s1.21-0.25,2-0.25c0.77,0,1.43,0.09,1.97,0.26
			c0.54,0.17,0.97,0.42,1.3,0.75s0.56,0.73,0.71,1.22s0.22,1.04,0.22,1.65v6.22C19.18,57.02,16.76,57.02,16.76,57.02z M16.58,52.19
			c-0.13,0.13-0.33,0.24-0.58,0.32c-0.25,0.08-0.62,0.17-1.1,0.26c-0.75,0.15-1.26,0.33-1.54,0.56s-0.42,0.55-0.42,0.98
			c0,0.73,0.42,1.1,1.26,1.1c0.33,0,0.64-0.06,0.93-0.17c0.29-0.11,0.53-0.27,0.74-0.46s0.37-0.42,0.5-0.68
			c0.13-0.26,0.19-0.54,0.19-0.83L16.58,52.19z"/>
		<path class="st0" d="M20.2,45.99v-2.42h2.6v2.42C22.8,45.99,20.2,45.99,20.2,45.99z M20.2,57.02v-9.85h2.6v9.85
			C22.8,57.02,20.2,57.02,20.2,57.02z"/>
		<path class="st0" d="M23.8,57.02V43.57h2.6v13.45H23.8z"/>
		<path class="st0" d="M32.17,57.28c-0.8,0-1.51-0.13-2.14-0.38s-1.16-0.61-1.59-1.06s-0.76-1-0.99-1.64s-0.34-1.34-0.34-2.1
			c0-0.77,0.12-1.48,0.35-2.12s0.57-1.19,1.01-1.64s0.97-0.8,1.59-1.05s1.32-0.37,2.11-0.37c0.77,0,1.47,0.12,2.08,0.37
			s1.14,0.59,1.57,1.04s0.77,0.99,1,1.63s0.35,1.35,0.35,2.14s-0.12,1.5-0.35,2.13s-0.57,1.18-1,1.63s-0.96,0.8-1.58,1.05
			C33.62,57.15,32.93,57.28,32.17,57.28z M32.17,55.09c1.59,0,2.38-1,2.38-3c0-1.99-0.79-2.98-2.38-2.98s-2.38,0.99-2.38,2.98
			C29.79,54.09,30.58,55.09,32.17,55.09z"/>
		<path class="st0" d="M37.93,57.02v-9.85h2.44v1.18c0.21-0.33,0.44-0.59,0.67-0.78s0.47-0.33,0.72-0.43s0.5-0.16,0.75-0.19
			s0.51-0.04,0.78-0.04h0.34v2.66c-0.24-0.04-0.48-0.06-0.72-0.06c-1.59,0-2.38,0.79-2.38,2.38v5.12h-2.6V57.02z"/>
		<path class="st0" d="M49.72,50.15c-0.07-0.48-0.24-0.82-0.52-1.01s-0.72-0.29-1.32-0.29c-0.49,0-0.87,0.06-1.14,0.19
			c-0.27,0.13-0.4,0.34-0.4,0.63s0.13,0.52,0.4,0.67c0.27,0.15,0.67,0.3,1.2,0.45c0.56,0.16,1.09,0.3,1.6,0.43s0.95,0.26,1.34,0.41
			c0.52,0.21,0.92,0.5,1.2,0.87c0.28,0.37,0.42,0.87,0.42,1.51c0,1.03-0.36,1.83-1.09,2.4s-1.8,0.86-3.21,0.86
			c-1.52,0-2.68-0.32-3.49-0.96s-1.22-1.46-1.25-2.46h2.68c0,0.47,0.18,0.83,0.54,1.08s0.86,0.38,1.5,0.38
			c0.47,0,0.87-0.08,1.22-0.23c0.35-0.15,0.52-0.42,0.52-0.79c0-0.35-0.16-0.59-0.47-0.74s-0.68-0.27-1.11-0.38
			c-0.83-0.2-1.49-0.38-2-0.54s-0.93-0.35-1.28-0.58c-0.47-0.29-0.79-0.63-0.97-1s-0.27-0.78-0.27-1.22c0-0.41,0.07-0.8,0.22-1.16
			s0.39-0.67,0.72-0.93c0.33-0.26,0.76-0.46,1.29-0.61c0.53-0.15,1.16-0.22,1.91-0.22c1.43,0,2.48,0.27,3.15,0.82
			c0.67,0.55,1.04,1.35,1.11,2.42C52.22,50.15,49.72,50.15,49.72,50.15z"/>
		<path class="st0" d="M58.52,50.53h2.42v2.8c0,0.52-0.08,1.02-0.23,1.49c-0.15,0.47-0.39,0.89-0.72,1.26s-0.74,0.66-1.24,0.87
			s-1.1,0.32-1.79,0.32c-0.72,0-1.33-0.11-1.84-0.32s-0.92-0.5-1.25-0.86s-0.56-0.78-0.71-1.26c-0.15-0.48-0.22-0.99-0.22-1.52V44.5
			h2.56v2.66h5.44V49H55.5v4.04c0,0.63,0.12,1.11,0.35,1.45S56.47,55,57,55c0.52,0,0.9-0.17,1.15-0.5s0.37-0.81,0.37-1.42V50.53z"/>
		<path class="st0" d="M68.23,57.02v-1.38c-0.67,1.09-1.69,1.64-3.06,1.64c-0.49,0-0.94-0.09-1.35-0.26
			c-0.41-0.17-0.76-0.42-1.05-0.74c-0.29-0.32-0.52-0.7-0.69-1.14s-0.25-0.93-0.25-1.48v-6.48h2.6v6.08c0,1.23,0.55,1.84,1.66,1.84
			c0.67,0,1.17-0.21,1.51-0.63c0.34-0.42,0.51-0.96,0.51-1.61v-5.68h2.58v9.85L68.23,57.02L68.23,57.02z"/>
		<path class="st0" d="M78.47,57.02l-0.02-1.2c-0.6,0.97-1.51,1.46-2.74,1.46c-0.63,0-1.2-0.12-1.72-0.36
			c-0.52-0.24-0.97-0.59-1.34-1.04c-0.37-0.45-0.67-1.01-0.88-1.66s-0.32-1.39-0.32-2.22c0-0.75,0.09-1.43,0.27-2.05
			s0.44-1.16,0.79-1.61s0.77-0.8,1.27-1.05s1.07-0.37,1.71-0.37c1.21,0,2.19,0.51,2.92,1.54v-4.88h2.56v13.45L78.47,57.02
			L78.47,57.02z M76.31,55.15c0.63,0,1.15-0.26,1.57-0.78s0.63-1.2,0.63-2.04c0-2.13-0.73-3.2-2.18-3.2c-1.49,0-2.24,1.01-2.24,3.04
			c0,0.88,0.21,1.6,0.62,2.15C75.13,54.88,75.66,55.15,76.31,55.15z"/>
		<path class="st0" d="M82,45.99v-2.42h2.6v2.42C84.6,45.99,82,45.99,82,45.99z M82,57.02v-9.85h2.6v9.85
			C84.6,57.02,82,57.02,82,57.02z"/>
		<path class="st0" d="M90.44,57.28c-0.8,0-1.51-0.13-2.14-0.38s-1.16-0.61-1.59-1.06c-0.43-0.45-0.76-1-0.99-1.64
			c-0.23-0.64-0.34-1.34-0.34-2.1c0-0.77,0.12-1.48,0.35-2.12c0.23-0.64,0.57-1.19,1.01-1.64s0.97-0.8,1.59-1.05
			c0.62-0.25,1.32-0.37,2.11-0.37c0.77,0,1.47,0.12,2.08,0.37s1.14,0.59,1.57,1.04s0.77,0.99,1,1.63s0.35,1.35,0.35,2.14
			s-0.12,1.5-0.35,2.13c-0.23,0.63-0.57,1.18-1,1.63s-0.96,0.8-1.58,1.05C91.89,57.15,91.2,57.28,90.44,57.28z M90.44,55.09
			c1.59,0,2.38-1,2.38-3c0-1.99-0.79-2.98-2.38-2.98s-2.38,0.99-2.38,2.98C88.06,54.09,88.85,55.09,90.44,55.09z"/>
	</g>
	<g>
		<path class="st0" d="M76.07,62.72v-4.18h0.8v1.52c0.23-0.32,0.53-0.48,0.91-0.48c0.2,0,0.38,0.04,0.53,0.12
			c0.16,0.08,0.29,0.19,0.4,0.33c0.11,0.14,0.19,0.31,0.25,0.5s0.08,0.41,0.08,0.64c0,0.26-0.03,0.49-0.1,0.69
			c-0.07,0.2-0.16,0.38-0.27,0.52c-0.12,0.14-0.26,0.25-0.42,0.32c-0.16,0.07-0.34,0.11-0.53,0.11c-0.38,0-0.67-0.15-0.85-0.45
			l-0.01,0.37L76.07,62.72L76.07,62.72z M77.52,62.14c0.2,0,0.37-0.09,0.5-0.26s0.19-0.4,0.19-0.67c0-0.63-0.23-0.95-0.7-0.95
			c-0.45,0-0.68,0.33-0.68,1c0,0.26,0.07,0.47,0.2,0.64C77.17,62.06,77.33,62.14,77.52,62.14z"/>
		<path class="st0" d="M81.28,62.31c-0.06,0.14-0.16,0.24-0.31,0.32c-0.15,0.08-0.32,0.12-0.51,0.12c-0.16,0-0.31-0.03-0.45-0.08
			c-0.14-0.05-0.26-0.13-0.36-0.22c-0.1-0.1-0.18-0.21-0.23-0.35c-0.06-0.13-0.08-0.29-0.08-0.46v-1.99h0.81v1.87
			c0,0.38,0.17,0.57,0.52,0.57c0.19,0,0.34-0.05,0.45-0.16s0.17-0.24,0.17-0.41v-1.87h0.81v3.14c0,0.22-0.04,0.41-0.11,0.58
			c-0.07,0.17-0.17,0.31-0.3,0.43c-0.13,0.12-0.28,0.21-0.45,0.27s-0.36,0.09-0.55,0.09c-0.45,0-0.79-0.11-1.01-0.34
			c-0.22-0.23-0.34-0.54-0.34-0.94h0.75c0,0.18,0.05,0.33,0.16,0.43s0.26,0.16,0.48,0.16c0.07,0,0.15-0.02,0.21-0.05
			c0.07-0.03,0.13-0.07,0.18-0.13s0.09-0.13,0.12-0.21c0.03-0.08,0.05-0.17,0.05-0.27L81.28,62.31L81.28,62.31z"/>
		<path class="st0" d="M84.67,62.72v-2.86h-0.85V59.3c0.18,0,0.33-0.01,0.45-0.04c0.12-0.03,0.22-0.07,0.3-0.13s0.13-0.13,0.17-0.22
			s0.07-0.19,0.08-0.31h0.66v4.13L84.67,62.72L84.67,62.72z"/>
		<path class="st0" d="M87.98,60.46c0.09,0.04,0.18,0.1,0.25,0.17c0.08,0.07,0.14,0.15,0.2,0.25c0.05,0.09,0.1,0.19,0.12,0.3
			s0.04,0.22,0.04,0.34c0,0.2-0.03,0.38-0.09,0.54c-0.06,0.17-0.15,0.31-0.26,0.43c-0.12,0.12-0.27,0.21-0.45,0.28
			s-0.39,0.1-0.63,0.1s-0.44-0.03-0.63-0.1c-0.18-0.07-0.33-0.16-0.45-0.28c-0.12-0.12-0.21-0.26-0.27-0.42s-0.09-0.33-0.09-0.51
			c0-0.24,0.05-0.45,0.16-0.63s0.27-0.32,0.49-0.42c-0.17-0.09-0.29-0.22-0.36-0.39s-0.11-0.35-0.11-0.52
			c0-0.16,0.03-0.31,0.09-0.45s0.15-0.26,0.26-0.36c0.11-0.1,0.24-0.18,0.4-0.24c0.15-0.06,0.32-0.09,0.5-0.09
			c0.2,0,0.38,0.03,0.54,0.09s0.29,0.14,0.39,0.24c0.1,0.1,0.18,0.22,0.23,0.35c0.05,0.13,0.08,0.28,0.08,0.44
			c0,0.18-0.03,0.36-0.1,0.52C88.25,60.25,88.14,60.37,87.98,60.46z M87.17,62.19c0.21,0,0.36-0.06,0.46-0.18s0.14-0.29,0.14-0.5
			c0-0.19-0.05-0.35-0.14-0.47c-0.1-0.12-0.25-0.18-0.45-0.18s-0.36,0.06-0.45,0.17c-0.09,0.12-0.14,0.27-0.14,0.47
			c0,0.22,0.04,0.38,0.13,0.5C86.81,62.13,86.96,62.19,87.17,62.19z M87.17,60.22c0.17,0,0.3-0.05,0.38-0.16
			c0.08-0.1,0.12-0.24,0.12-0.4c0-0.17-0.04-0.31-0.12-0.41s-0.21-0.15-0.38-0.15s-0.3,0.05-0.38,0.15
			c-0.08,0.1-0.12,0.24-0.12,0.41c0,0.16,0.04,0.29,0.12,0.4C86.87,60.17,87,60.22,87.17,60.22z"/>
		<path class="st0" d="M90.76,59.48c-0.02-0.26-0.17-0.39-0.44-0.39c-0.22,0-0.39,0.11-0.5,0.32s-0.18,0.54-0.2,0.99
			c0.1-0.11,0.21-0.2,0.34-0.28c0.13-0.07,0.3-0.11,0.51-0.11c0.16,0,0.31,0.03,0.46,0.09c0.14,0.06,0.27,0.15,0.37,0.27
			c0.11,0.12,0.19,0.26,0.25,0.43c0.06,0.17,0.09,0.36,0.09,0.58c0,0.21-0.03,0.41-0.1,0.59s-0.16,0.34-0.28,0.47
			c-0.12,0.13-0.26,0.23-0.43,0.31c-0.17,0.07-0.35,0.11-0.56,0.11c-0.49,0-0.85-0.17-1.09-0.52c-0.24-0.35-0.36-0.87-0.36-1.55
			c0-0.42,0.03-0.77,0.1-1.06s0.16-0.54,0.29-0.73s0.29-0.33,0.48-0.42c0.19-0.09,0.42-0.13,0.68-0.13c0.34,0,0.61,0.09,0.82,0.26
			c0.21,0.18,0.34,0.43,0.38,0.77C91.57,59.48,90.76,59.48,90.76,59.48z M90.26,62.21c0.09,0,0.17-0.02,0.25-0.06
			s0.13-0.09,0.18-0.17c0.05-0.07,0.09-0.15,0.11-0.25c0.03-0.1,0.04-0.2,0.04-0.31c0-0.24-0.05-0.42-0.16-0.56
			c-0.11-0.14-0.25-0.21-0.43-0.21s-0.33,0.07-0.45,0.21c-0.11,0.14-0.17,0.32-0.17,0.55c0,0.24,0.05,0.43,0.17,0.58
			C89.9,62.13,90.06,62.21,90.26,62.21z"/>
		<path class="st0" d="M91.78,62.72c0-0.19,0.02-0.37,0.05-0.54c0.03-0.17,0.09-0.33,0.18-0.49c0.09-0.16,0.21-0.33,0.38-0.49
			c0.16-0.17,0.38-0.34,0.64-0.54c0.15-0.1,0.27-0.2,0.37-0.28c0.1-0.08,0.18-0.16,0.23-0.24c0.06-0.07,0.1-0.15,0.12-0.22
			c0.02-0.07,0.04-0.16,0.04-0.24c0-0.1-0.01-0.19-0.04-0.26s-0.07-0.13-0.12-0.17c-0.05-0.04-0.11-0.07-0.18-0.09
			s-0.15-0.02-0.22-0.02c-0.19,0-0.33,0.05-0.44,0.16s-0.16,0.3-0.16,0.58h-0.78c0-0.45,0.12-0.8,0.35-1.05
			c0.23-0.25,0.57-0.38,0.99-0.38c0.21,0,0.4,0.02,0.57,0.07s0.32,0.12,0.44,0.22c0.12,0.1,0.22,0.23,0.29,0.38s0.1,0.33,0.1,0.53
			c0,0.16-0.02,0.3-0.06,0.43s-0.11,0.26-0.2,0.38c-0.09,0.12-0.22,0.25-0.37,0.38s-0.34,0.27-0.56,0.43
			c-0.16,0.12-0.29,0.24-0.4,0.38s-0.17,0.26-0.17,0.36h1.78v0.7L91.78,62.72L91.78,62.72z"/>
	</g>
	<g>
		<path class="st0" d="M97.23,47.48v-0.71c0-0.13-0.03-0.23-0.09-0.29s-0.18-0.09-0.34-0.09h-0.62v1.08h-0.56V44.7h1.4
			c0.13,0,0.24,0.02,0.35,0.06c0.1,0.04,0.19,0.1,0.27,0.17c0.08,0.07,0.13,0.16,0.17,0.25c0.04,0.1,0.06,0.2,0.06,0.32
			c0,0.15-0.04,0.28-0.11,0.4c-0.07,0.12-0.17,0.2-0.31,0.24c0.12,0.04,0.21,0.1,0.26,0.18s0.08,0.2,0.08,0.36v0.78h-0.56V47.48z
			 M96.18,45.19v0.74h0.73c0.16,0,0.27-0.03,0.33-0.1c0.06-0.07,0.1-0.16,0.1-0.26c0-0.11-0.03-0.2-0.09-0.27s-0.17-0.1-0.31-0.1
			h-0.76V45.19z"/>
	</g>
	<g>
		<path class="st0" d="M96.72,48.63c-1.25,0-2.27-1.02-2.27-2.27s1.02-2.27,2.27-2.27S99,45.1,99,46.35S97.98,48.63,96.72,48.63z
			 M96.72,44.37c-1.09,0-1.98,0.89-1.98,1.98s0.89,1.98,1.98,1.98c1.09,0,1.98-0.89,1.98-1.98C98.71,45.26,97.82,44.37,96.72,44.37z
			"/>
	</g>
</g>
</svg>
