<?xml version="1.0" encoding="utf-8"?>
<!-- Generator: Adobe Illustrator 24.1.1, SVG Export Plug-In . SVG Version: 6.00 Build 0)  -->
<svg version="1.1" id="Layer_1" xmlns="http://www.w3.org/2000/svg" xmlns:xlink="http://www.w3.org/1999/xlink" x="0px" y="0px"
	 viewBox="0 0 100 100" style="enable-background:new 0 0 100 100;" xml:space="preserve">
<style type="text/css">
	.st0{fill-rule:evenodd;clip-rule:evenodd;fill:#203061;}
	.st1{fill-rule:evenodd;clip-rule:evenodd;fill:#EC1C24;}
	.st2{fill-rule:evenodd;clip-rule:evenodd;fill:#FFFFFF;}
</style>
<path id="XMLID_12_" class="st0" d="M59.06,78.18c0.12,0.19,1.05,0.07,1.22,0.03c0.4-0.09,0.31-0.41,0.3-0.98
	c0-0.38-0.04-0.76-0.04-1.13c0-0.19,0.02-0.39,0.01-0.58c-0.04-1.54,0.29-2.72,1.01-3.55c0.5-0.58,1.07-0.79,1.17-0.81
	c0.38-0.07,0.6,0.02,0.67,0.29c0.1,0.42,0,0.77-0.29,1.05c-0.42,0.4-0.6,0.23-0.98,0.23c-0.25,0-0.25,0.11,0,0.33
	c1,0.88,2.44,0.65,2.62,0.63c1.71-0.22,2.73-1.4,2.94-1.43c0.22-0.04-0.11,0.9,0.62,1.23c0.81,0.37,2.7,0.19,3.72-0.66l0.64-0.54
	c0.26-0.22,0.05,0.58,1.26,1.22c1.4,0.74,3.89,0.16,3.96-1.79c0.02-0.57-0.46-0.84,0.13-0.95c0.89-0.17,0.6-0.06,1.38,1.54
	c0.21,0.43,0.34,0.7,0.4,0.8c0.15,0.24,0.29,0.6,0.71,0.5c0.53-0.12,1.48-1.19,1.57-1.29l0.5-0.64c0.05-0.07,0.13-0.05,0.23,0.08
	l1.4,1.64c0.13,0.16,0.33,0.23,0.59,0.22c0.29-0.01,0.64-0.14,1.05-0.4c0.74-0.47,1.28-0.92,1.63-1.33c0.4-0.47,0.5-0.78,0.33-0.92
	c-0.39-0.33-1.04,0.46-1.53,0.68c-1.29,0.59-2-1.62-2.52-1.9c-0.39-0.21-0.94,0.04-1.65,0.73l-0.62,0.6
	c-0.24,0.23-0.42-0.62-0.6-0.96c-0.14-0.25-0.26-0.4-0.37-0.46c-0.35-0.17-2.37,0.46-3.56,0.51l-0.94,0.05
	c-0.3,0.02,0.07,0.43,0.12,0.74c0.12,0.68-0.13,1.38-0.55,1.48c-0.72,0.19-0.93-0.98-0.87-1.4c0.15-1.02,1.22-1.17,1.3-1.23
	c0.2-0.15-0.01-0.3-0.47-0.36c-1.78-0.19-2.37,1.68-4.34,2.75c-1.52,0.83-1.08-0.23-1.13-0.88c-0.12-1.53,0.51-1.63-1.47-1.57
	c-0.15,0.01-0.6-0.05-0.74,0.27c-0.21,0.5,0.16,0.56-0.31,1.11c-0.58,0.67-1.2,1.08-1.88,1.23c-1.01,0.23-0.55-0.27-0.46-0.57
	c0.08-0.24,0.12-0.44,0.13-0.61c0.05-0.71-0.85-1.52-2.34-1.3c-1.31,0.19-2.3,1.33-2.35,1.36l-0.08,0.05h-0.04
	c-0.02,0-0.03-0.16-0.02-0.49c0.02-0.77,0.12-0.95-0.55-0.98c-0.78-0.04-0.82,0.11-0.95,0.26c-0.22,0.26-0.35,0.58-0.55,0.86
	c-0.57,0.78-0.99,1.12-1.26,1.02c-0.17-0.06-1.85-1.99-2.2-2.06c-0.31-0.07-0.59,0.05-0.85,0.36l-1.11,1.36
	c-0.09,0.11-0.2,0.08-0.33-0.09l-1.05-1.36c-0.19-0.25-0.78-0.47-1.25,0.11l-1.11,1.38c-0.07,0.09-0.16,0.06-0.28-0.09l-1.24-1.5
	c-0.04-0.05-0.3-0.24-0.62-0.12c-0.29,0.1-1.03,0.88-1.69,1.44c-0.24,0.21-0.46,0.45-0.71,0.64l-0.09,0.07
	c-0.23,0.12-0.46-0.38-0.66-0.63c-0.4-0.48-0.68-0.74-0.84-0.8c-0.76-0.22-0.66,0.89-0.8,1.27c-0.31,0.89-1.53,0.98-1.54,0.02
	c-0.01-1.09,1.41-1.56,1.48-1.61c0.12-0.08,0.33-0.3-0.12-0.35c-0.87-0.09-1.81,0.22-2.83,0.9l-1.69,1.14
	c-0.75,0.5-1.3-1.33-1.5-1.64c-0.09-0.14-0.26-0.51-0.79-0.39c-0.22,0.05-0.6,0.32-1.11,0.79l-0.87,0.81
	c-0.06,0.05-0.12,0.05-0.16-0.04c-0.05-0.09-0.09-0.65-0.12-1.7c-0.02-0.64,0.02-1.29-0.02-1.93c-0.02-0.36-0.05-0.38-0.01-1.19
	c0.01-0.08,0.02-0.15,0.02-0.22c0-0.29-0.22-0.23-0.78-0.24c-0.51-0.01-0.88-0.09-0.9,0.24l-0.12,2.79
	c-0.08,1.79-0.02,3.02,0.2,3.68c0.17,0.52,0.42,0.81,0.74,0.86c0.95,0.15,1.78-1.2,1.92-1.35c0.12-0.12,0.25-0.3,0.48-0.03
	c0.16,0.19,0.25,0.43,0.4,0.63c0.56,0.75,0.75,0.76,1.31,0.74c0.98-0.02,1.97-1.03,2.19-1.15c0.29-0.15,0.25,0.16,0.3,0.29
	c0.23,0.65,1.12,1.12,2.14,0.9c1.28-0.28,1.3-0.95,1.7-0.81c0.26,0.09,0.58,0.96,1.25,0.87c0.39-0.05,1.28-0.85,1.85-1.26
	c0.4-0.3,0.64-0.47,0.71-0.51c0.37-0.22,0.43,0.31,1.33,1.31c0.33,0.36,0.69,0.72,1.46-0.06l1.15-1.16c0.26-0.26,0.6,0.56,1.42,1.38
	c0.05,0.05,0.1,0.12,0.16,0.16c0.26,0.18,0.62,0.02,1.07-0.5L54,72.27c0.08-0.09,0.19-0.07,0.33,0.05c0.54,0.49,1.16,1.47,1.68,1.52
	c0.47,0.04,1.1-0.26,1.91-0.91l0.78-0.62c0.25-0.2,0.08,0.47,0.17,1.85c0.03,0.46,0.04,0.98,0.02,1.6
	C58.84,76.91,59.03,78.13,59.06,78.18z"/>
<path id="XMLID_13_" class="st0" d="M20.74,75.04c1.01,0.12,2.03,0.12,3.07,0.02c0.93-0.1,1.71-0.24,2.33-0.43
	c1.9-0.57,3.27-1.54,3.92-2.34c0.48-0.58-0.17-0.19-0.54-0.04c-1.2,0.47-2.43,0.79-3.68,0.98c-1.15,0.18-0.99,0.11-1-0.35
	c-0.03-1.99,0.08-3.97,0.02-5.96c-0.02-0.52,0-0.5,0.58-0.44c1.08,0.1,2.23,0.36,3.47,0.79c0.22,0.08,1.18,0.61,0.62-0.23
	c-1.2-1.82-5.03-2.25-6.29-2.3c-7.82-0.29-11.7,4.68-8.14,8.01C16.45,74.01,18.33,74.77,20.74,75.04z"/>
<path id="XMLID_14_" class="st1" d="M19.22,66.47c0.13-0.05,0.27-0.05,0.4-0.04c0.19,0.03,0.19,0.09,0.2,0.24l-0.02,6.43
	c0,0.08-0.02,0.12-0.07,0.16c-0.1,0.06-1.12-0.07-1.64-0.22c-0.67-0.19-2.04-0.8-2.62-1.99c-0.31-0.64-0.28-1.4-0.25-1.57
	C15.56,67.74,17.43,66.71,19.22,66.47z"/>
<path id="XMLID_15_" class="st0" d="M68.49,69.09c0.29,0.07,1.46,0.09,1.61-0.76c0.15-0.85-1.28-1.32-2.09-0.7
	C67.54,67.99,67.42,68.83,68.49,69.09z"/>
<path id="XMLID_16_" class="st0" d="M86.08,69.08c0.4,0,0.74-0.33,0.74-0.74c0-0.4-0.33-0.74-0.74-0.74c-0.41,0-0.74,0.33-0.74,0.74
	C85.34,68.75,85.67,69.08,86.08,69.08z"/>
<path id="XMLID_17_" class="st2" d="M86.08,68.97c-0.34,0-0.62-0.28-0.62-0.62c0-0.35,0.28-0.62,0.62-0.62
	c0.35,0,0.62,0.28,0.62,0.62C86.7,68.7,86.42,68.97,86.08,68.97z"/>
<path id="XMLID_18_" class="st0" d="M85.76,68.76h0.17v-0.33h0.16c0.08,0,0.16,0.06,0.16,0.19c0,0.1,0,0.11,0.02,0.14h0.16
	c-0.02-0.09,0-0.17-0.02-0.26c-0.02-0.09-0.08-0.14-0.13-0.15c0.09-0.02,0.16-0.1,0.16-0.21c0-0.13-0.09-0.23-0.25-0.23h-0.43
	L85.76,68.76L85.76,68.76z"/>
<path id="XMLID_19_" class="st2" d="M85.93,68.31v-0.24h0.21c0.07,0,0.12,0.05,0.12,0.12c0,0.07-0.05,0.12-0.12,0.12L85.93,68.31z"
	/>
<path id="XMLID_2_" class="st0" d="M46.84,54.91c3.14,0.37,6.33,0.39,9.56,0.04c2.89-0.31,5.32-0.76,7.27-1.36
	c5.93-1.8,10.19-4.78,12.24-7.29c1.49-1.82-0.53-0.57-1.69-0.12c-3.74,1.44-7.57,2.47-11.49,3.08c-3.58,0.56-3.1,0.33-3.13-1.09
	c-0.11-6.18,0.25-12.37,0.04-18.55c-0.05-1.63,0-1.55,1.81-1.39c3.36,0.3,6.96,1.12,10.8,2.46c0.7,0.24,3.68,1.92,1.93-0.74
	c-3.75-5.68-15.65-7-19.6-7.14c-24.37-0.9-36.45,14.6-25.34,24.97C33.46,51.7,39.32,54.07,46.84,54.91z"/>
<path id="XMLID_1_" class="st1" d="M42.1,28.22c0.41-0.14,0.84-0.18,1.26-0.12c0.6,0.09,0.6,0.3,0.63,0.76L43.94,48.9
	c0,0.23-0.07,0.4-0.22,0.5c-0.31,0.2-3.47-0.22-5.13-0.7c-2.1-0.61-6.36-2.5-8.16-6.18c-0.98-1.99-0.88-4.34-0.78-4.88
	C30.69,32.17,36.53,28.97,42.1,28.22z"/>
</svg>
